<svg xmlns="http://www.w3.org/2000/svg" xmlns:xlink="http://www.w3.org/1999/xlink" width="1080" zoomAndPan="magnify" viewBox="0 0 810 809.999993" height="1080" preserveAspectRatio="xMidYMid meet" version="1.0"><defs><clipPath id="7dabadfaf3"><path d="M 146.035156 256 L 541 256 L 541 662.261719 L 146.035156 662.261719 Z M 146.035156 256 " clip-rule="nonzero"/></clipPath><clipPath id="966b23a4a8"><path d="M 286 147.761719 L 664 147.761719 L 664 531 L 286 531 Z M 286 147.761719 " clip-rule="nonzero"/></clipPath></defs><path fill="#6f8538" d="M 612.28125 405.011719 C 612.28125 408.398438 612.199219 411.789062 612.03125 415.171875 C 611.867188 418.558594 611.617188 421.9375 611.285156 425.3125 C 610.953125 428.6875 610.535156 432.050781 610.039062 435.402344 C 609.539062 438.753906 608.960938 442.09375 608.300781 445.417969 C 607.636719 448.746094 606.894531 452.050781 606.070312 455.339844 C 605.246094 458.628906 604.34375 461.894531 603.355469 465.136719 C 602.371094 468.382812 601.308594 471.597656 600.167969 474.792969 C 599.023438 477.984375 597.804688 481.144531 596.503906 484.277344 C 595.207031 487.410156 593.832031 490.507812 592.382812 493.570312 C 590.933594 496.636719 589.40625 499.664062 587.808594 502.652344 C 586.210938 505.640625 584.539062 508.589844 582.796875 511.496094 C 581.050781 514.40625 579.238281 517.269531 577.351562 520.085938 C 575.46875 522.90625 573.515625 525.675781 571.496094 528.398438 C 569.476562 531.121094 567.386719 533.792969 565.238281 536.414062 C 563.085938 539.035156 560.871094 541.601562 558.59375 544.113281 C 556.316406 546.625 553.976562 549.078125 551.578125 551.476562 C 549.179688 553.871094 546.722656 556.210938 544.210938 558.484375 C 541.695312 560.761719 539.128906 562.976562 536.507812 565.125 C 533.886719 567.277344 531.210938 569.363281 528.488281 571.382812 C 525.765625 573.402344 522.992188 575.351562 520.171875 577.234375 C 517.351562 579.117188 514.484375 580.929688 511.578125 582.675781 C 508.667969 584.417969 505.71875 586.085938 502.726562 587.683594 C 499.734375 589.285156 496.707031 590.808594 493.640625 592.257812 C 490.574219 593.707031 487.472656 595.078125 484.339844 596.375 C 481.207031 597.671875 478.042969 598.894531 474.847656 600.035156 C 471.65625 601.175781 468.433594 602.242188 465.1875 603.222656 C 461.945312 604.207031 458.675781 605.113281 455.386719 605.9375 C 452.09375 606.757812 448.785156 607.503906 445.460938 608.164062 C 442.132812 608.824219 438.792969 609.402344 435.4375 609.902344 C 432.082031 610.398438 428.714844 610.8125 425.339844 611.144531 C 421.964844 611.476562 418.582031 611.726562 415.195312 611.894531 C 411.808594 612.058594 408.417969 612.144531 405.027344 612.144531 C 401.632812 612.144531 398.246094 612.058594 394.855469 611.894531 C 391.46875 611.726562 388.085938 611.476562 384.710938 611.144531 C 381.335938 610.8125 377.96875 610.398438 374.617188 609.902344 C 371.261719 609.402344 367.917969 608.824219 364.59375 608.164062 C 361.265625 607.503906 357.957031 606.757812 354.667969 605.9375 C 351.375 605.113281 348.109375 604.207031 344.863281 603.222656 C 341.617188 602.242188 338.398438 601.175781 335.203125 600.035156 C 332.011719 598.894531 328.847656 597.671875 325.710938 596.375 C 322.578125 595.078125 319.480469 593.707031 316.414062 592.257812 C 313.347656 590.808594 310.316406 589.285156 307.328125 587.683594 C 304.335938 586.085938 301.386719 584.417969 298.476562 582.675781 C 295.566406 580.929688 292.703125 579.117188 289.882812 577.234375 C 287.0625 575.351562 284.289062 573.402344 281.5625 571.382812 C 278.839844 569.363281 276.167969 567.277344 273.542969 565.125 C 270.921875 562.976562 268.355469 560.761719 265.84375 558.484375 C 263.328125 556.210938 260.871094 553.871094 258.472656 551.476562 C 256.074219 549.078125 253.738281 546.625 251.460938 544.113281 C 249.183594 541.601562 246.96875 539.035156 244.816406 536.414062 C 242.664062 533.792969 240.578125 531.121094 238.558594 528.398438 C 236.535156 525.675781 234.582031 522.90625 232.699219 520.085938 C 230.816406 517.269531 229 514.40625 227.257812 511.496094 C 225.511719 508.589844 223.84375 505.640625 222.242188 502.652344 C 220.644531 499.664062 219.121094 496.636719 217.667969 493.570312 C 216.21875 490.507812 214.84375 487.410156 213.546875 484.277344 C 212.25 481.144531 211.027344 477.984375 209.886719 474.792969 C 208.742188 471.597656 207.679688 468.382812 206.695312 465.136719 C 205.710938 461.894531 204.804688 458.628906 203.980469 455.339844 C 203.15625 452.050781 202.414062 448.746094 201.753906 445.417969 C 201.089844 442.09375 200.511719 438.753906 200.015625 435.402344 C 199.515625 432.050781 199.101562 428.6875 198.769531 425.3125 C 198.4375 421.9375 198.1875 418.558594 198.019531 415.171875 C 197.855469 411.789062 197.769531 408.398438 197.769531 405.011719 C 197.769531 401.621094 197.855469 398.230469 198.019531 394.847656 C 198.1875 391.460938 198.4375 388.082031 198.769531 384.707031 C 199.101562 381.332031 199.515625 377.96875 200.015625 374.617188 C 200.511719 371.265625 201.089844 367.925781 201.753906 364.601562 C 202.414062 361.273438 203.15625 357.96875 203.980469 354.679688 C 204.804688 351.390625 205.710938 348.125 206.695312 344.882812 C 207.679688 341.636719 208.742188 338.421875 209.886719 335.226562 C 211.027344 332.035156 212.25 328.875 213.546875 325.742188 C 214.84375 322.609375 216.21875 319.511719 217.667969 316.449219 C 219.121094 313.382812 220.644531 310.355469 222.242188 307.367188 C 223.84375 304.378906 225.511719 301.429688 227.257812 298.523438 C 229 295.613281 230.816406 292.75 232.699219 289.933594 C 234.582031 287.113281 236.535156 284.34375 238.558594 281.621094 C 240.578125 278.898438 242.664062 276.226562 244.816406 273.605469 C 246.96875 270.984375 249.183594 268.417969 251.460938 265.90625 C 253.738281 263.394531 256.074219 260.941406 258.472656 258.542969 C 260.871094 256.148438 263.328125 253.808594 265.84375 251.535156 C 268.355469 249.257812 270.921875 247.042969 273.542969 244.894531 C 276.167969 242.742188 278.839844 240.65625 281.5625 238.636719 C 284.289062 236.617188 287.0625 234.667969 289.882812 232.785156 C 292.703125 230.902344 295.566406 229.089844 298.476562 227.34375 C 301.386719 225.601562 304.335938 223.933594 307.328125 222.335938 C 310.316406 220.734375 313.347656 219.210938 316.414062 217.761719 C 319.480469 216.3125 322.578125 214.941406 325.710938 213.644531 C 328.847656 212.347656 332.011719 211.125 335.203125 209.984375 C 338.398438 208.84375 341.617188 207.777344 344.863281 206.796875 C 348.109375 205.8125 351.375 204.90625 354.667969 204.082031 C 357.957031 203.261719 361.265625 202.515625 364.59375 201.855469 C 367.917969 201.195312 371.261719 200.617188 374.617188 200.117188 C 377.96875 199.621094 381.335938 199.207031 384.710938 198.875 C 388.085938 198.542969 391.46875 198.292969 394.855469 198.125 C 398.246094 197.960938 401.632812 197.875 405.027344 197.875 C 408.417969 197.875 411.808594 197.960938 415.195312 198.125 C 418.582031 198.292969 421.964844 198.542969 425.339844 198.875 C 428.714844 199.207031 432.082031 199.621094 435.4375 200.117188 C 438.792969 200.617188 442.132812 201.195312 445.460938 201.855469 C 448.785156 202.515625 452.09375 203.261719 455.386719 204.082031 C 458.675781 204.90625 461.945312 205.8125 465.1875 206.796875 C 468.433594 207.777344 471.65625 208.84375 474.847656 209.984375 C 478.042969 211.125 481.207031 212.347656 484.339844 213.644531 C 487.472656 214.941406 490.574219 216.3125 493.640625 217.761719 C 496.707031 219.210938 499.734375 220.734375 502.726562 222.335938 C 505.71875 223.933594 508.667969 225.601562 511.578125 227.34375 C 514.484375 229.089844 517.351562 230.902344 520.171875 232.785156 C 522.992188 234.667969 525.765625 236.617188 528.488281 238.636719 C 531.210938 240.65625 533.886719 242.742188 536.507812 244.894531 C 539.128906 247.042969 541.695312 249.257812 544.210938 251.535156 C 546.722656 253.808594 549.179688 256.148438 551.578125 258.542969 C 553.976562 260.941406 556.316406 263.394531 558.59375 265.90625 C 560.871094 268.417969 563.085938 270.984375 565.238281 273.605469 C 567.386719 276.226562 569.476562 278.898438 571.496094 281.621094 C 573.515625 284.34375 575.46875 287.113281 577.351562 289.933594 C 579.238281 292.75 581.050781 295.613281 582.796875 298.523438 C 584.539062 301.429688 586.210938 304.378906 587.808594 307.367188 C 589.40625 310.355469 590.933594 313.382812 592.382812 316.449219 C 593.832031 319.511719 595.207031 322.609375 596.503906 325.742188 C 597.804688 328.875 599.023438 332.035156 600.167969 335.226562 C 601.308594 338.421875 602.371094 341.636719 603.355469 344.882812 C 604.34375 348.125 605.246094 351.390625 606.070312 354.679688 C 606.894531 357.96875 607.636719 361.273438 608.300781 364.601562 C 608.960938 367.925781 609.539062 371.265625 610.039062 374.617188 C 610.535156 377.96875 610.953125 381.332031 611.285156 384.707031 C 611.617188 388.082031 611.867188 391.460938 612.03125 394.847656 C 612.199219 398.230469 612.28125 401.621094 612.28125 405.011719 Z M 612.28125 405.011719 " fill-opacity="1" fill-rule="nonzero"/><path fill="#bcd644" d="M 595.039062 405.011719 C 595.039062 408.117188 594.960938 411.222656 594.808594 414.328125 C 594.65625 417.433594 594.429688 420.53125 594.121094 423.625 C 593.816406 426.714844 593.4375 429.800781 592.980469 432.875 C 592.523438 435.949219 591.992188 439.007812 591.386719 442.058594 C 590.78125 445.105469 590.097656 448.136719 589.34375 451.152344 C 588.589844 454.167969 587.757812 457.160156 586.855469 460.136719 C 585.953125 463.109375 584.976562 466.058594 583.929688 468.984375 C 582.882812 471.910156 581.765625 474.808594 580.574219 477.679688 C 579.382812 480.550781 578.125 483.394531 576.792969 486.203125 C 575.464844 489.011719 574.066406 491.789062 572.601562 494.527344 C 571.136719 497.269531 569.601562 499.972656 568.003906 502.636719 C 566.40625 505.304688 564.742188 507.929688 563.015625 510.511719 C 561.289062 513.097656 559.496094 515.636719 557.644531 518.132812 C 555.792969 520.628906 553.878906 523.078125 551.90625 525.480469 C 549.933594 527.882812 547.902344 530.234375 545.816406 532.539062 C 543.726562 534.839844 541.582031 537.09375 539.386719 539.289062 C 537.1875 541.488281 534.933594 543.628906 532.628906 545.714844 C 530.328125 547.804688 527.972656 549.832031 525.570312 551.804688 C 523.164062 553.777344 520.714844 555.6875 518.214844 557.539062 C 515.71875 559.390625 513.175781 561.179688 510.589844 562.90625 C 508.003906 564.632812 505.378906 566.292969 502.710938 567.890625 C 500.042969 569.492188 497.339844 571.023438 494.597656 572.488281 C 491.855469 573.953125 489.078125 575.347656 486.265625 576.675781 C 483.457031 578.007812 480.613281 579.265625 477.742188 580.453125 C 474.867188 581.644531 471.96875 582.761719 469.039062 583.808594 C 466.109375 584.855469 463.160156 585.832031 460.183594 586.734375 C 457.207031 587.636719 454.210938 588.464844 451.195312 589.21875 C 448.179688 589.972656 445.144531 590.65625 442.09375 591.261719 C 439.046875 591.867188 435.984375 592.398438 432.90625 592.855469 C 429.832031 593.308594 426.746094 593.691406 423.652344 593.996094 C 420.554688 594.300781 417.457031 594.527344 414.351562 594.679688 C 411.242188 594.832031 408.136719 594.910156 405.027344 594.910156 C 401.917969 594.910156 398.808594 594.832031 395.703125 594.679688 C 392.597656 594.527344 389.496094 594.300781 386.402344 593.996094 C 383.308594 593.691406 380.222656 593.308594 377.144531 592.855469 C 374.070312 592.398438 371.007812 591.867188 367.957031 591.261719 C 364.90625 590.65625 361.875 589.972656 358.855469 589.21875 C 355.839844 588.464844 352.84375 587.636719 349.867188 586.734375 C 346.894531 585.832031 343.941406 584.855469 341.011719 583.808594 C 338.085938 582.761719 335.183594 581.644531 332.3125 580.453125 C 329.4375 579.265625 326.597656 578.007812 323.785156 576.675781 C 320.972656 575.347656 318.199219 573.953125 315.457031 572.488281 C 312.710938 571.023438 310.007812 569.492188 307.339844 567.890625 C 304.671875 566.292969 302.046875 564.632812 299.460938 562.90625 C 296.875 561.179688 294.335938 559.390625 291.835938 557.539062 C 289.339844 555.6875 286.886719 553.777344 284.484375 551.804688 C 282.082031 549.832031 279.726562 547.804688 277.421875 545.714844 C 275.117188 543.628906 272.867188 541.488281 270.667969 539.289062 C 268.46875 537.09375 266.324219 534.839844 264.238281 532.539062 C 262.148438 530.234375 260.117188 527.882812 258.144531 525.480469 C 256.171875 523.078125 254.257812 520.628906 252.40625 518.132812 C 250.554688 515.636719 248.765625 513.097656 247.039062 510.511719 C 245.308594 507.929688 243.644531 505.304688 242.046875 502.636719 C 240.449219 499.972656 238.917969 497.269531 237.449219 494.527344 C 235.984375 491.789062 234.585938 489.011719 233.257812 486.203125 C 231.929688 483.394531 230.667969 480.550781 229.476562 477.679688 C 228.289062 474.808594 227.167969 471.910156 226.121094 468.984375 C 225.074219 466.058594 224.097656 463.109375 223.195312 460.136719 C 222.292969 457.160156 221.464844 454.167969 220.707031 451.152344 C 219.953125 448.136719 219.273438 445.105469 218.664062 442.058594 C 218.058594 439.007812 217.527344 435.949219 217.070312 432.875 C 216.613281 429.800781 216.234375 426.714844 215.929688 423.625 C 215.625 420.53125 215.394531 417.433594 215.242188 414.328125 C 215.089844 411.222656 215.015625 408.117188 215.015625 405.011719 C 215.015625 401.902344 215.089844 398.796875 215.242188 395.691406 C 215.394531 392.585938 215.625 389.488281 215.929688 386.394531 C 216.234375 383.304688 216.613281 380.21875 217.070312 377.144531 C 217.527344 374.070312 218.058594 371.011719 218.664062 367.960938 C 219.273438 364.914062 219.953125 361.882812 220.707031 358.867188 C 221.464844 355.851562 222.292969 352.859375 223.195312 349.882812 C 224.097656 346.910156 225.074219 343.960938 226.121094 341.035156 C 227.167969 338.109375 228.289062 335.210938 229.476562 332.339844 C 230.667969 329.46875 231.929688 326.625 233.257812 323.816406 C 234.585938 321.007812 235.984375 318.230469 237.449219 315.492188 C 238.917969 312.75 240.449219 310.046875 242.046875 307.382812 C 243.644531 304.714844 245.308594 302.089844 247.039062 299.507812 C 248.765625 296.921875 250.554688 294.382812 252.40625 291.886719 C 254.257812 289.390625 256.171875 286.941406 258.144531 284.539062 C 260.117188 282.136719 262.148438 279.785156 264.238281 277.480469 C 266.324219 275.179688 268.46875 272.925781 270.667969 270.730469 C 272.867188 268.53125 275.117188 266.390625 277.421875 264.304688 C 279.726562 262.214844 282.082031 260.1875 284.484375 258.214844 C 286.886719 256.242188 289.339844 254.332031 291.835938 252.480469 C 294.335938 250.628906 296.875 248.839844 299.460938 247.113281 C 302.046875 245.386719 304.671875 243.726562 307.339844 242.128906 C 310.007812 240.527344 312.710938 238.996094 315.457031 237.53125 C 318.199219 236.066406 320.972656 234.671875 323.785156 233.34375 C 326.597656 232.011719 329.4375 230.753906 332.3125 229.566406 C 335.183594 228.375 338.085938 227.257812 341.011719 226.210938 C 343.941406 225.164062 346.894531 224.1875 349.867188 223.285156 C 352.84375 222.382812 355.839844 221.554688 358.855469 220.800781 C 361.875 220.046875 364.90625 219.363281 367.957031 218.757812 C 371.007812 218.152344 374.070312 217.621094 377.144531 217.164062 C 380.222656 216.710938 383.308594 216.328125 386.402344 216.023438 C 389.496094 215.71875 392.597656 215.492188 395.703125 215.339844 C 398.808594 215.1875 401.917969 215.109375 405.027344 215.109375 C 408.136719 215.109375 411.242188 215.1875 414.347656 215.339844 C 417.457031 215.492188 420.554688 215.71875 423.652344 216.023438 C 426.746094 216.328125 429.832031 216.710938 432.90625 217.164062 C 435.984375 217.621094 439.046875 218.152344 442.09375 218.757812 C 445.144531 219.363281 448.179688 220.046875 451.195312 220.800781 C 454.210938 221.554688 457.207031 222.382812 460.183594 223.285156 C 463.160156 224.1875 466.109375 225.164062 469.039062 226.210938 C 471.96875 227.257812 474.867188 228.375 477.742188 229.566406 C 480.613281 230.753906 483.457031 232.011719 486.265625 233.34375 C 489.078125 234.671875 491.855469 236.066406 494.597656 237.53125 C 497.339844 238.996094 500.042969 240.527344 502.710938 242.128906 C 505.378906 243.726562 508.003906 245.386719 510.589844 247.113281 C 513.175781 248.839844 515.71875 250.628906 518.214844 252.480469 C 520.714844 254.332031 523.164062 256.242188 525.570312 258.214844 C 527.972656 260.1875 530.328125 262.214844 532.628906 264.304688 C 534.933594 266.390625 537.1875 268.53125 539.386719 270.730469 C 541.582031 272.925781 543.726562 275.179688 545.816406 277.480469 C 547.902344 279.785156 549.933594 282.136719 551.90625 284.539062 C 553.878906 286.941406 555.792969 289.390625 557.644531 291.886719 C 559.496094 294.382812 561.289062 296.921875 563.015625 299.507812 C 564.742188 302.089844 566.40625 304.714844 568.003906 307.382812 C 569.601562 310.046875 571.136719 312.75 572.601562 315.492188 C 574.066406 318.230469 575.464844 321.007812 576.792969 323.816406 C 578.125 326.625 579.382812 329.46875 580.574219 332.339844 C 581.765625 335.210938 582.882812 338.109375 583.929688 341.035156 C 584.976562 343.960938 585.953125 346.910156 586.855469 349.882812 C 587.757812 352.859375 588.589844 355.851562 589.34375 358.867188 C 590.097656 361.882812 590.78125 364.914062 591.386719 367.960938 C 591.992188 371.011719 592.523438 374.070312 592.980469 377.144531 C 593.4375 380.21875 593.816406 383.304688 594.121094 386.394531 C 594.429688 389.488281 594.65625 392.585938 594.808594 395.691406 C 594.960938 398.796875 595.039062 401.902344 595.039062 405.011719 Z M 595.039062 405.011719 " fill-opacity="1" fill-rule="nonzero"/><path fill="#eceb7c" d="M 549.914062 405.011719 C 549.914062 407.378906 549.855469 409.746094 549.738281 412.113281 C 549.621094 414.480469 549.449219 416.84375 549.214844 419.203125 C 548.984375 421.5625 548.691406 423.914062 548.34375 426.257812 C 547.996094 428.601562 547.59375 430.933594 547.128906 433.257812 C 546.667969 435.582031 546.148438 437.894531 545.570312 440.195312 C 544.996094 442.492188 544.363281 444.777344 543.675781 447.042969 C 542.988281 449.3125 542.242188 451.5625 541.445312 453.792969 C 540.644531 456.023438 539.792969 458.234375 538.882812 460.421875 C 537.976562 462.613281 537.015625 464.777344 536.003906 466.921875 C 534.988281 469.0625 533.921875 471.179688 532.804688 473.269531 C 531.6875 475.359375 530.519531 477.421875 529.300781 479.453125 C 528.082031 481.484375 526.8125 483.488281 525.496094 485.457031 C 524.179688 487.429688 522.8125 489.363281 521.402344 491.269531 C 519.988281 493.171875 518.53125 495.039062 517.027344 496.871094 C 515.519531 498.703125 513.972656 500.496094 512.378906 502.253906 C 510.789062 504.007812 509.152344 505.726562 507.476562 507.398438 C 505.800781 509.074219 504.082031 510.710938 502.328125 512.300781 C 500.570312 513.890625 498.773438 515.441406 496.941406 516.945312 C 495.109375 518.445312 493.238281 519.902344 491.335938 521.316406 C 489.429688 522.726562 487.492188 524.089844 485.519531 525.410156 C 483.550781 526.726562 481.546875 527.992188 479.511719 529.210938 C 477.480469 530.429688 475.417969 531.597656 473.324219 532.714844 C 471.234375 533.832031 469.117188 534.894531 466.972656 535.910156 C 464.828125 536.921875 462.664062 537.882812 460.472656 538.789062 C 458.28125 539.695312 456.070312 540.550781 453.835938 541.347656 C 451.605469 542.144531 449.355469 542.890625 447.085938 543.578125 C 444.816406 544.265625 442.53125 544.898438 440.230469 545.472656 C 437.929688 546.046875 435.617188 546.566406 433.292969 547.03125 C 430.964844 547.492188 428.632812 547.898438 426.285156 548.246094 C 423.941406 548.59375 421.585938 548.882812 419.226562 549.113281 C 416.867188 549.347656 414.503906 549.519531 412.136719 549.636719 C 409.765625 549.753906 407.398438 549.8125 405.027344 549.8125 C 402.65625 549.8125 400.285156 549.753906 397.917969 549.636719 C 395.546875 549.519531 393.183594 549.347656 390.824219 549.113281 C 388.464844 548.882812 386.113281 548.59375 383.765625 548.246094 C 381.421875 547.898438 379.085938 547.492188 376.761719 547.03125 C 374.433594 546.566406 372.121094 546.046875 369.820312 545.472656 C 367.519531 544.898438 365.238281 544.265625 362.96875 543.578125 C 360.699219 542.890625 358.449219 542.144531 356.214844 541.347656 C 353.984375 540.550781 351.769531 539.695312 349.582031 538.789062 C 347.390625 537.882812 345.222656 536.921875 343.078125 535.910156 C 340.933594 534.894531 338.816406 533.832031 336.726562 532.714844 C 334.636719 531.597656 332.574219 530.429688 330.539062 529.210938 C 328.503906 527.992188 326.503906 526.726562 324.53125 525.410156 C 322.558594 524.089844 320.621094 522.726562 318.71875 521.316406 C 316.8125 519.902344 314.945312 518.445312 313.109375 516.941406 C 311.277344 515.441406 309.484375 513.890625 307.726562 512.300781 C 305.96875 510.710938 304.253906 509.074219 302.574219 507.398438 C 300.898438 505.726562 299.265625 504.007812 297.671875 502.253906 C 296.078125 500.496094 294.53125 498.703125 293.027344 496.871094 C 291.523438 495.039062 290.0625 493.171875 288.652344 491.269531 C 287.238281 489.363281 285.875 487.429688 284.558594 485.457031 C 283.238281 483.488281 281.972656 481.484375 280.753906 479.453125 C 279.53125 477.421875 278.363281 475.359375 277.246094 473.269531 C 276.128906 471.179688 275.0625 469.0625 274.050781 466.921875 C 273.035156 464.777344 272.074219 462.613281 271.167969 460.421875 C 270.261719 458.234375 269.40625 456.023438 268.609375 453.792969 C 267.808594 451.5625 267.066406 449.3125 266.378906 447.042969 C 265.6875 444.777344 265.058594 442.492188 264.480469 440.195312 C 263.90625 437.894531 263.386719 435.582031 262.921875 433.257812 C 262.460938 430.933594 262.054688 428.601562 261.707031 426.257812 C 261.359375 423.914062 261.070312 421.5625 260.835938 419.203125 C 260.605469 416.84375 260.429688 414.480469 260.3125 412.113281 C 260.195312 409.746094 260.140625 407.378906 260.140625 405.011719 C 260.140625 402.640625 260.195312 400.273438 260.3125 397.90625 C 260.429688 395.539062 260.605469 393.175781 260.835938 390.816406 C 261.070312 388.457031 261.359375 386.105469 261.707031 383.761719 C 262.054688 381.417969 262.460938 379.085938 262.921875 376.761719 C 263.386719 374.4375 263.90625 372.125 264.480469 369.824219 C 265.058594 367.527344 265.6875 365.242188 266.378906 362.976562 C 267.066406 360.707031 267.808594 358.457031 268.609375 356.226562 C 269.40625 353.996094 270.261719 351.785156 271.167969 349.597656 C 272.074219 347.40625 273.035156 345.242188 274.050781 343.097656 C 275.0625 340.957031 276.128906 338.839844 277.246094 336.75 C 278.363281 334.660156 279.53125 332.597656 280.753906 330.566406 C 281.972656 328.535156 283.238281 326.53125 284.558594 324.5625 C 285.875 322.589844 287.238281 320.65625 288.652344 318.75 C 290.0625 316.847656 291.523438 314.980469 293.027344 313.148438 C 294.53125 311.316406 296.078125 309.523438 297.671875 307.765625 C 299.265625 306.011719 300.898438 304.292969 302.574219 302.621094 C 304.253906 300.945312 305.96875 299.308594 307.726562 297.71875 C 309.484375 296.128906 311.277344 294.578125 313.109375 293.078125 C 314.945312 291.574219 316.8125 290.117188 318.71875 288.703125 C 320.621094 287.292969 322.558594 285.929688 324.53125 284.609375 C 326.503906 283.292969 328.503906 282.027344 330.539062 280.808594 C 332.574219 279.589844 334.636719 278.421875 336.726562 277.304688 C 338.816406 276.1875 340.933594 275.125 343.078125 274.109375 C 345.222656 273.097656 347.390625 272.136719 349.582031 271.230469 C 351.769531 270.324219 353.984375 269.46875 356.214844 268.671875 C 358.449219 267.875 360.699219 267.128906 362.96875 266.441406 C 365.238281 265.753906 367.519531 265.121094 369.820312 264.546875 C 372.121094 263.972656 374.433594 263.453125 376.761719 262.988281 C 379.085938 262.527344 381.421875 262.121094 383.765625 261.773438 C 386.113281 261.425781 388.464844 261.136719 390.824219 260.90625 C 393.183594 260.671875 395.546875 260.5 397.917969 260.382812 C 400.285156 260.265625 402.65625 260.207031 405.027344 260.207031 C 407.398438 260.207031 409.765625 260.265625 412.136719 260.382812 C 414.503906 260.5 416.867188 260.671875 419.226562 260.90625 C 421.585938 261.136719 423.941406 261.425781 426.285156 261.773438 C 428.632812 262.121094 430.964844 262.527344 433.292969 262.988281 C 435.617188 263.453125 437.929688 263.972656 440.230469 264.546875 C 442.53125 265.121094 444.816406 265.753906 447.085938 266.441406 C 449.355469 267.128906 451.605469 267.875 453.835938 268.671875 C 456.070312 269.46875 458.28125 270.324219 460.472656 271.230469 C 462.664062 272.136719 464.828125 273.097656 466.972656 274.109375 C 469.117188 275.125 471.234375 276.1875 473.324219 277.304688 C 475.417969 278.421875 477.480469 279.589844 479.511719 280.808594 C 481.546875 282.027344 483.550781 283.292969 485.519531 284.609375 C 487.492188 285.929688 489.429688 287.292969 491.335938 288.703125 C 493.238281 290.117188 495.109375 291.574219 496.941406 293.078125 C 498.773438 294.578125 500.570312 296.128906 502.328125 297.71875 C 504.082031 299.308594 505.800781 300.945312 507.476562 302.621094 C 509.152344 304.292969 510.789062 306.011719 512.378906 307.765625 C 513.972656 309.523438 515.519531 311.316406 517.027344 313.148438 C 518.53125 314.980469 519.988281 316.847656 521.402344 318.75 C 522.8125 320.65625 524.179688 322.589844 525.496094 324.5625 C 526.8125 326.53125 528.082031 328.535156 529.300781 330.566406 C 530.519531 332.597656 531.6875 334.660156 532.804688 336.75 C 533.921875 338.839844 534.988281 340.957031 536.003906 343.097656 C 537.015625 345.242188 537.976562 347.40625 538.882812 349.597656 C 539.792969 351.785156 540.644531 353.996094 541.445312 356.226562 C 542.242188 358.457031 542.988281 360.707031 543.675781 362.976562 C 544.363281 365.242188 544.996094 367.527344 545.570312 369.824219 C 546.148438 372.125 546.667969 374.4375 547.128906 376.761719 C 547.59375 379.085938 547.996094 381.417969 548.34375 383.761719 C 548.691406 386.105469 548.984375 388.457031 549.214844 390.816406 C 549.449219 393.175781 549.621094 395.539062 549.738281 397.90625 C 549.855469 400.273438 549.914062 402.640625 549.914062 405.011719 Z M 549.914062 405.011719 " fill-opacity="1" fill-rule="nonzero"/><path fill="#6f8538" d="M 392.207031 420.726562 L 342.394531 421.054688 C 340.941406 421.054688 340.015625 419.273438 340.875 417.886719 L 410.179688 302.863281 C 411.171875 301.210938 413.550781 302.003906 413.550781 303.984375 L 412.886719 379.65625 C 412.886719 380.777344 413.679688 381.703125 414.738281 381.703125 L 468.121094 381.371094 C 469.640625 381.371094 470.5 383.21875 469.640625 384.539062 L 392.605469 506.828125 C 391.546875 508.542969 389.167969 507.554688 389.234375 505.507812 L 393.992188 422.902344 C 394.125 421.714844 393.265625 420.726562 392.207031 420.726562 Z M 392.207031 420.726562 " fill-opacity="1" fill-rule="nonzero"/><g clip-path="url(#7dabadfaf3)"><path fill="#eceb7c" d="M 539.210938 616.898438 C 537.492188 614.058594 533.859375 613.265625 531.148438 614.917969 C 492.898438 638.292969 448.761719 650.574219 403.507812 650.574219 C 268 650.574219 157.800781 540.4375 157.800781 405.011719 C 157.800781 359.847656 170.089844 315.804688 193.476562 277.574219 L 200.347656 299.296875 C 201.140625 301.871094 203.386719 303.390625 205.964844 303.390625 C 206.558594 303.390625 207.152344 303.390625 207.679688 303.191406 C 210.71875 302.269531 212.503906 298.964844 211.445312 295.796875 L 200.480469 260.800781 C 199.6875 258.09375 196.976562 256.378906 194.269531 256.707031 L 158.328125 261 C 155.023438 261.332031 152.84375 264.300781 153.175781 267.40625 C 153.503906 270.707031 156.542969 272.886719 159.714844 272.554688 L 185.351562 269.519531 C 184.558594 269.980469 183.960938 270.574219 183.367188 271.367188 C 158.988281 311.578125 146.105469 357.800781 146.105469 405.011719 C 146.105469 546.839844 261.59375 662.257812 403.507812 662.257812 C 450.878906 662.257812 497.125 649.382812 537.226562 624.953125 C 540.070312 623.238281 540.863281 619.738281 539.210938 616.898438 Z M 190.765625 268.921875 L 190.898438 269.386719 C 190.703125 269.253906 190.4375 269.1875 190.105469 269.054688 Z M 190.765625 268.921875 " fill-opacity="1" fill-rule="nonzero"/></g><g clip-path="url(#966b23a4a8)"><path fill="#eceb7c" d="M 657.605469 515.277344 L 635.140625 517.324219 C 652.253906 482.132812 660.90625 444.296875 660.90625 405.007812 C 660.90625 263.179688 545.488281 147.761719 403.507812 147.761719 C 363.800781 147.761719 325.679688 156.609375 290.132812 173.972656 C 287.226562 175.425781 286.039062 178.925781 287.425781 181.765625 C 288.878906 184.671875 292.378906 185.859375 295.222656 184.472656 C 329.113281 167.898438 365.582031 159.445312 403.441406 159.445312 C 538.945312 159.445312 649.148438 269.582031 649.148438 405.007812 C 649.148438 442.449219 640.890625 478.5 624.636719 512.042969 L 617.632812 487.480469 C 616.773438 484.375 613.535156 482.527344 610.433594 483.453125 C 607.328125 484.3125 605.542969 487.546875 606.402344 490.648438 L 616.445312 525.976562 C 617.171875 528.484375 619.484375 530.203125 622.058594 530.203125 C 622.257812 530.203125 622.390625 530.203125 622.589844 530.203125 L 658.59375 526.898438 C 661.832031 526.636719 664.210938 523.730469 663.882812 520.5625 C 663.683594 517.390625 660.839844 515.082031 657.605469 515.277344 Z M 657.605469 515.277344 " fill-opacity="1" fill-rule="nonzero"/></g></svg>