<svg xmlns="http://www.w3.org/2000/svg" xmlns:xlink="http://www.w3.org/1999/xlink" width="1080" zoomAndPan="magnify" viewBox="0 0 810 809.999993" height="1080" preserveAspectRatio="xMidYMid meet" version="1.0"><defs><clipPath id="db13fce0c4"><path d="M 179 138 L 631.21875 138 L 631.21875 517 L 179 517 Z M 179 138 " clip-rule="nonzero"/></clipPath></defs><path fill="#c4f2f7" d="M 425.527344 408.109375 L 404.492188 408.109375 L 385.113281 407.960938 L 343.492188 671.722656 L 466.695312 671.722656 Z M 425.527344 408.109375 " fill-opacity="1" fill-rule="nonzero"/><g clip-path="url(#db13fce0c4)"><path fill="#81dbea" d="M 627.164062 477.015625 L 436.046875 366.828125 L 436.046875 146.300781 C 436.046875 141.648438 432.289062 138.042969 427.78125 138.042969 L 427.179688 138.042969 C 405.847656 138.042969 385.863281 150.355469 378.050781 170.019531 C 375.644531 176.023438 374.292969 182.78125 374.292969 189.6875 L 374.292969 367.128906 L 435.445312 367.128906 L 404.945312 419.820312 L 374.59375 367.277344 L 183.175781 477.917969 C 179.269531 480.167969 177.765625 485.273438 180.171875 489.324219 L 180.472656 489.925781 C 190.988281 508.242188 211.722656 519.351562 232.757812 516.347656 C 239.21875 515.445312 245.679688 513.195312 251.691406 509.742188 L 405.546875 421.019531 L 405.09375 420.269531 L 558.648438 508.839844 C 564.660156 512.292969 571.121094 514.394531 577.582031 515.445312 C 598.617188 518.449219 619.199219 507.339844 629.867188 488.875 L 630.167969 488.273438 C 632.421875 484.371094 631.070312 479.269531 627.164062 477.015625 Z M 627.164062 477.015625 " fill-opacity="1" fill-rule="nonzero"/></g><path fill="#36adb9" d="M 452.273438 384.542969 C 452.273438 386.085938 452.195312 387.625 452.046875 389.164062 C 451.894531 390.699219 451.667969 392.222656 451.367188 393.738281 C 451.066406 395.253906 450.691406 396.746094 450.242188 398.226562 C 449.792969 399.703125 449.273438 401.15625 448.679688 402.582031 C 448.089844 404.007812 447.429688 405.402344 446.703125 406.761719 C 445.972656 408.125 445.179688 409.445312 444.320312 410.730469 C 443.464844 412.015625 442.542969 413.253906 441.5625 414.445312 C 440.582031 415.640625 439.546875 416.78125 438.453125 417.875 C 437.363281 418.964844 436.21875 420 435.023438 420.980469 C 433.828125 421.960938 432.589844 422.878906 431.304688 423.734375 C 430.019531 424.59375 428.695312 425.386719 427.335938 426.113281 C 425.972656 426.839844 424.578125 427.5 423.148438 428.089844 C 421.722656 428.683594 420.269531 429.203125 418.789062 429.648438 C 417.3125 430.097656 415.8125 430.472656 414.296875 430.773438 C 412.78125 431.074219 411.257812 431.300781 409.71875 431.453125 C 408.179688 431.605469 406.640625 431.679688 405.09375 431.679688 C 403.550781 431.679688 402.007812 431.605469 400.46875 431.453125 C 398.933594 431.300781 397.40625 431.074219 395.890625 430.773438 C 394.375 430.472656 392.878906 430.097656 391.398438 429.648438 C 389.921875 429.203125 388.46875 428.683594 387.039062 428.089844 C 385.613281 427.5 384.21875 426.839844 382.855469 426.113281 C 381.492188 425.386719 380.167969 424.59375 378.882812 423.734375 C 377.597656 422.878906 376.359375 421.960938 375.164062 420.980469 C 373.96875 420 372.828125 418.964844 371.734375 417.875 C 370.640625 416.78125 369.605469 415.640625 368.625 414.445312 C 367.644531 413.253906 366.726562 412.015625 365.867188 410.730469 C 365.007812 409.445312 364.214844 408.125 363.488281 406.761719 C 362.757812 405.402344 362.097656 404.007812 361.507812 402.582031 C 360.917969 401.15625 360.394531 399.703125 359.949219 398.226562 C 359.5 396.746094 359.125 395.253906 358.824219 393.738281 C 358.519531 392.222656 358.292969 390.699219 358.144531 389.164062 C 357.992188 387.625 357.917969 386.085938 357.917969 384.542969 C 357.917969 383 357.992188 381.457031 358.144531 379.921875 C 358.292969 378.386719 358.519531 376.859375 358.824219 375.347656 C 359.125 373.832031 359.5 372.335938 359.949219 370.859375 C 360.394531 369.382812 360.917969 367.929688 361.507812 366.503906 C 362.097656 365.078125 362.757812 363.683594 363.488281 362.320312 C 364.214844 360.960938 365.007812 359.636719 365.867188 358.355469 C 366.726562 357.070312 367.644531 355.832031 368.625 354.636719 C 369.605469 353.445312 370.640625 352.300781 371.734375 351.210938 C 372.828125 350.117188 373.96875 349.082031 375.164062 348.105469 C 376.359375 347.125 377.597656 346.207031 378.882812 345.347656 C 380.167969 344.492188 381.492188 343.699219 382.855469 342.96875 C 384.21875 342.242188 385.613281 341.582031 387.039062 340.992188 C 388.46875 340.402344 389.921875 339.882812 391.398438 339.433594 C 392.878906 338.984375 394.375 338.609375 395.890625 338.308594 C 397.40625 338.007812 398.933594 337.78125 400.46875 337.632812 C 402.007812 337.480469 403.550781 337.402344 405.09375 337.402344 C 406.640625 337.402344 408.179688 337.480469 409.71875 337.632812 C 411.257812 337.78125 412.78125 338.007812 414.296875 338.308594 C 415.8125 338.609375 417.3125 338.984375 418.789062 339.433594 C 420.269531 339.882812 421.722656 340.402344 423.148438 340.992188 C 424.578125 341.582031 425.972656 342.242188 427.335938 342.96875 C 428.695312 343.699219 430.019531 344.492188 431.304688 345.347656 C 432.589844 346.207031 433.828125 347.125 435.023438 348.105469 C 436.21875 349.082031 437.363281 350.117188 438.453125 351.210938 C 439.546875 352.300781 440.582031 353.445312 441.5625 354.636719 C 442.542969 355.832031 443.464844 357.070312 444.320312 358.355469 C 445.179688 359.636719 445.972656 360.960938 446.703125 362.320312 C 447.429688 363.683594 448.089844 365.078125 448.679688 366.503906 C 449.273438 367.929688 449.792969 369.382812 450.242188 370.859375 C 450.691406 372.335938 451.066406 373.832031 451.367188 375.347656 C 451.667969 376.859375 451.894531 378.386719 452.046875 379.921875 C 452.195312 381.457031 452.273438 383 452.273438 384.542969 Z M 452.273438 384.542969 " fill-opacity="1" fill-rule="nonzero"/><path fill="#36adb9" d="M 548.433594 392.046875 C 544.226562 392.046875 540.917969 388.746094 540.917969 384.542969 C 540.917969 334.101562 513.273438 288.164062 468.648438 264.296875 C 465.042969 262.34375 463.542969 257.839844 465.496094 254.085938 C 467.449219 250.484375 471.957031 248.984375 475.710938 250.933594 C 525.144531 277.355469 555.945312 328.398438 555.945312 384.390625 C 555.945312 388.746094 552.488281 392.046875 548.433594 392.046875 Z M 269.417969 384.542969 C 269.417969 334.101562 297.066406 288.164062 341.6875 264.296875 C 345.296875 262.34375 346.796875 257.839844 344.84375 254.085938 C 342.890625 250.484375 338.382812 248.984375 334.628906 250.933594 C 285.046875 277.507812 254.394531 328.695312 254.394531 384.542969 C 254.394531 388.746094 257.699219 392.046875 261.90625 392.046875 C 266.113281 392.046875 269.417969 388.746094 269.417969 384.542969 Z M 489.382812 510.792969 C 492.839844 508.542969 493.742188 503.738281 491.335938 500.433594 C 488.933594 496.980469 484.277344 496.082031 480.96875 498.484375 C 458.582031 513.644531 432.289062 521.601562 405.09375 521.601562 C 377.898438 521.601562 351.605469 513.644531 329.21875 498.484375 C 325.761719 496.230469 321.105469 497.132812 318.851562 500.433594 C 316.597656 503.886719 317.5 508.542969 320.804688 510.792969 C 345.746094 527.605469 374.894531 536.464844 405.09375 536.464844 C 435.292969 536.464844 464.441406 527.605469 489.382812 510.792969 Z M 489.382812 510.792969 " fill-opacity="1" fill-rule="nonzero"/></svg>