<svg xmlns="http://www.w3.org/2000/svg" xmlns:xlink="http://www.w3.org/1999/xlink" width="1080" zoomAndPan="magnify" viewBox="0 0 810 809.999993" height="1080" preserveAspectRatio="xMidYMid meet" version="1.0"><defs><clipPath id="2c6b5280c2"><path d="M 148 190.390625 L 661.730469 190.390625 L 661.730469 619.390625 L 148 619.390625 Z M 148 190.390625 " clip-rule="nonzero"/></clipPath></defs><path fill="#b6f8ff" d="M 637.132812 196.230469 L 153.25 456.8125 L 172.578125 484.398438 L 578.976562 484.398438 L 656.460938 223.820312 Z M 637.132812 196.230469 " fill-opacity="1" fill-rule="nonzero"/><path fill="#ffe578" d="M 230.734375 196.230469 L 153.25 456.8125 L 559.648438 456.8125 L 637.132812 196.230469 Z M 230.734375 196.230469 " fill-opacity="1" fill-rule="nonzero"/><path fill="#c0edc7" d="M 347.402344 484.398438 L 402.394531 484.398438 L 402.394531 613.722656 L 347.402344 613.722656 Z M 347.402344 484.398438 " fill-opacity="1" fill-rule="nonzero"/><g clip-path="url(#2c6b5280c2)"><path fill="#3f3f3f" d="M 660.675781 220.832031 L 641.347656 193.246094 L 641.171875 193.070312 C 640.996094 192.894531 640.820312 192.542969 640.644531 192.367188 L 640.472656 192.191406 C 640.296875 192.015625 639.945312 191.839844 639.769531 191.664062 L 639.59375 191.488281 C 638.890625 191.136719 638.1875 190.960938 637.484375 190.960938 L 230.734375 190.960938 C 228.453125 190.960938 226.34375 192.542969 225.640625 194.652344 L 148.15625 455.230469 L 148.15625 457.867188 C 148.15625 458.21875 148.332031 458.570312 148.507812 458.921875 C 148.507812 459.097656 148.683594 459.097656 148.683594 459.269531 C 148.859375 459.445312 148.859375 459.796875 149.035156 459.972656 L 168.363281 487.5625 C 169.417969 488.964844 170.996094 489.84375 172.753906 489.84375 L 342.128906 489.84375 L 342.128906 608.625 L 252.875 608.625 C 249.886719 608.625 247.601562 610.910156 247.601562 613.898438 C 247.601562 616.882812 249.886719 619.167969 252.875 619.167969 L 496.570312 619.167969 C 499.558594 619.167969 501.84375 616.882812 501.84375 613.898438 C 501.84375 610.910156 499.558594 608.625 496.570312 608.625 L 407.492188 608.625 L 407.492188 489.667969 L 578.976562 489.667969 C 581.257812 489.667969 583.367188 488.089844 584.070312 485.980469 L 661.554688 225.398438 C 661.90625 223.820312 661.730469 222.0625 660.675781 220.832031 Z M 630.105469 201.503906 L 607.4375 277.761719 L 516.777344 277.761719 L 539.441406 201.503906 Z M 378.324219 364.5625 L 287.664062 364.5625 L 310.328125 288.304688 L 400.988281 288.304688 Z M 412.058594 288.304688 L 502.722656 288.304688 L 480.054688 364.5625 L 389.394531 364.5625 Z M 375.164062 375.105469 L 352.496094 451.363281 L 261.835938 451.363281 L 284.5 375.105469 Z M 386.230469 375.105469 L 476.894531 375.105469 L 454.226562 451.363281 L 363.566406 451.363281 Z M 487.785156 375.105469 L 578.449219 375.105469 L 555.78125 451.363281 L 465.121094 451.363281 Z M 490.949219 364.5625 L 513.613281 288.304688 L 604.277344 288.304688 L 581.609375 364.5625 Z M 528.375 201.503906 L 505.707031 277.761719 L 415.046875 277.761719 L 437.886719 201.503906 Z M 426.816406 201.503906 L 404.152344 277.761719 L 313.492188 277.761719 L 336.15625 201.503906 Z M 234.601562 201.503906 L 325.261719 201.503906 L 302.597656 277.761719 L 211.9375 277.761719 Z M 208.773438 288.304688 L 299.433594 288.304688 L 276.769531 364.5625 L 186.109375 364.5625 Z M 182.945312 375.105469 L 273.605469 375.105469 L 250.941406 451.363281 L 160.28125 451.363281 Z M 397.125 608.273438 L 352.671875 608.273438 L 352.671875 489.667969 L 397.125 489.667969 Z M 575.109375 479.125 L 175.390625 479.125 L 163.441406 462.082031 L 559.824219 462.082031 C 562.109375 462.082031 564.214844 460.5 564.917969 458.394531 L 639.066406 208.179688 L 650.660156 224.699219 Z M 575.109375 479.125 " fill-opacity="1" fill-rule="nonzero"/></g></svg>