<svg width="713" height="292" viewBox="0 0 713 292" fill="none" xmlns="http://www.w3.org/2000/svg">
<mask id="mask0_161_375" style="mask-type:luminance" maskUnits="userSpaceOnUse" x="0" y="0" width="218" height="274">
<path d="M0 0H217.617V273.436H0V0Z" fill="white"/>
</mask>
<g mask="url(#mask0_161_375)">
<path d="M217.327 155.485H185.87V60.2197H137.87V155.485H59.379L153.809 0.0147705H94.4105L0 155.485V203.514H137.87V272.717H185.87V203.514H217.327V155.485Z" fill="#2D6FD1"/>
</g>
<mask id="mask1_161_375" style="mask-type:luminance" maskUnits="userSpaceOnUse" x="494" y="0" width="219" height="274">
<path d="M494.584 -6.10352e-05H712.201V273.436H494.584V-6.10352e-05Z" fill="white"/>
</mask>
<g mask="url(#mask1_161_375)">
<path d="M712.202 155.485H680.745V60.2194H632.76V155.485H554.269L648.684 0.0144653H589.285L494.875 155.485V203.514H632.76V272.717H680.745V203.514H712.202V155.485Z" fill="#2D6FD1"/>
</g>
<path d="M357.69 272.717C286.733 272.717 229.03 211.608 229.03 136.479C229.03 61.3496 286.733 0.299438 357.69 0.299438C428.641 0.299438 486.344 61.4076 486.344 136.523C486.344 211.637 428.627 272.717 357.69 272.717ZM357.69 43.8991C310.965 43.8991 272.954 85.4799 272.954 136.479C272.954 187.473 310.965 229.069 357.69 229.069C404.41 229.069 442.411 187.488 442.411 136.479C442.411 85.4654 404.395 43.8991 357.69 43.8991Z" fill="#2D6FD1"/>
<path d="M336.129 131.176C337.235 130.814 338.361 130.558 339.515 130.403C340.061 130.495 339.022 131.649 338.414 131.891C338.414 131.891 339.23 131.384 339.051 131.891C338.872 132.393 337.897 133.031 337.897 133.031L337.274 133.803C337.274 133.803 337.675 133.224 337.984 133.446C338.298 133.668 337.168 135.45 337.168 135.45L336.617 137.933L334.274 134.876L336.129 131.176Z" fill="#FB865D"/>
<path d="M396.991 185.247C394.876 185.001 392.794 184.585 390.746 184.001C390.746 184.518 390.746 185.083 390.746 185.691C392.726 186.232 394.731 186.619 396.769 186.85C402.705 187.551 414.944 191.511 419.619 199.534C419.991 199.089 420.378 198.655 420.735 198.21C415.538 189.999 403.033 185.928 396.991 185.247Z" fill="#0E133F"/>
<path d="M334.574 137.576C334.482 138.348 335.356 138.377 335.356 138.377C335.356 138.377 335.578 138.097 335.699 137.947C335.506 137.344 335.245 136.769 334.926 136.223C334.786 136.668 334.665 137.122 334.574 137.576Z" fill="#0E133F"/>
<path d="M335.7 137.947C336.086 137.46 336.487 136.967 336.888 136.465C336.521 135.672 336.091 134.924 335.599 134.204C335.328 134.89 335.106 135.586 334.927 136.18C335.251 136.74 335.507 137.329 335.7 137.947Z" fill="#0E133F"/>
<path d="M331.739 129.751L330.624 130.939C330.624 130.939 331.754 132.021 332.956 133.46C333.237 132.929 333.517 132.407 333.802 131.978C332.734 130.702 331.826 129.838 331.739 129.751Z" fill="#0E133F"/>
<path d="M343.176 158.397C338.993 151.104 337.969 141.44 337.776 139.092C337.631 139.372 337.457 139.633 337.259 139.88C336.82 140.401 336.535 140.995 336.395 141.662C337.09 147.844 338.877 153.688 341.765 159.199C346.146 166.845 356.873 175.92 359.704 178.239C359.409 177.273 359.129 176.321 358.844 175.37C354.719 171.834 346.692 164.517 343.176 158.397Z" fill="#0E133F"/>
<path d="M424.459 252.89C419.175 268.573 390.881 285.564 354.024 278.894C328.696 274.349 324.586 276.204 320.968 277.841C319.79 278.45 318.539 278.841 317.225 279.015C315.071 279.517 312.999 280.256 311.009 281.227C299.866 285.946 276.663 295.78 233.218 285.502C197.607 277.068 173.066 241.829 160.364 180.731C156.094 160.18 145.69 151.597 127.602 153.732C126.139 153.944 124.835 154.529 123.7 155.485H127.25C127.443 155.485 127.602 155.383 127.795 155.354C145.111 153.316 154.655 161.29 158.779 181.074C160.871 191.188 165.797 214.859 176.911 237.077C190.725 264.757 209.552 281.628 232.832 287.091C244.694 290.013 256.73 291.534 268.945 291.65C276.301 291.742 283.58 291.032 290.781 289.53C297.987 288.028 304.943 285.762 311.646 282.739C313.506 281.831 315.438 281.135 317.447 280.647C318.915 280.44 320.311 280 321.635 279.339C325.045 277.856 328.904 276.059 353.744 280.512C392.659 287.491 422.319 268.529 426.444 251.866C426.468 251.755 426.468 251.649 426.444 251.538C425.835 251.972 425.14 252.446 424.459 252.89Z" fill="#0E133F"/>
<path d="M107.693 203.514C106.563 204.977 105.264 206.281 103.81 207.416C102.352 208.556 100.772 209.498 99.0817 210.242C97.3864 210.986 95.6283 211.507 93.8026 211.811C91.9769 212.111 90.1415 212.183 88.3013 212.024C78.1826 211.502 69.7254 207.566 65.079 201.224C60.9832 195.655 59.9593 188.381 62.1135 180.18C66.813 161.947 67.4988 152.249 64.2773 147.511L63.3113 149.085C65.7311 153.659 64.7989 163.087 60.5244 179.799C58.2543 188.454 59.3507 196.206 63.8039 202.267C68.7449 209.005 77.661 213.178 88.253 213.729H89.7406C91.6871 213.758 93.6142 213.555 95.5124 213.111C97.4153 212.671 99.2314 212.005 100.97 211.116C102.704 210.227 104.308 209.145 105.781 207.865C107.254 206.581 108.548 205.141 109.664 203.543L107.693 203.514Z" fill="#0E133F"/>
<path d="M107.307 85.451C107.027 84.7989 100.26 69.2949 84.3356 64.465C68.4161 59.6399 48.4154 66.4887 40.8952 75.7235C36.6353 80.9495 36.1329 89.3729 36.4421 95.4586L38.0166 92.8601C38.0166 87.3974 38.7846 80.877 42.1414 76.7619C49.1882 68.0922 68.9378 61.5139 83.8477 66.025C99.0282 70.6279 105.732 85.9388 105.795 86.0885C105.824 86.2044 105.877 86.3059 105.954 86.3976C106.027 86.4894 106.119 86.5618 106.225 86.615C106.331 86.6633 106.442 86.6922 106.563 86.6922C106.679 86.6971 106.795 86.6729 106.906 86.6295C107.012 86.5812 107.109 86.5135 107.186 86.4266C107.263 86.3397 107.321 86.2382 107.36 86.1271C107.394 86.0112 107.403 85.8953 107.389 85.7794C107.374 85.6635 107.34 85.5524 107.278 85.451H107.307Z" fill="#0E133F"/>
<path d="M344.659 183.523C344.659 183.523 346.041 179.364 345.761 178.355C345.476 177.345 333.237 149.042 333.324 148.535C334.352 147.119 335.173 145.598 335.787 143.961C336.429 141.541 336.574 140.575 337.275 139.831C337.97 139.092 339.187 136.03 338.873 135.214C338.564 134.397 336.666 136.701 335.372 138.377C335.372 138.377 334.497 138.377 334.589 137.576C334.676 136.774 336.202 131.905 337.096 131.635C337.985 131.369 340.506 129.988 340.284 128.742C340.061 127.491 336.115 130.089 335.106 130.418C334.096 130.746 331.754 136.03 331.145 137.16C330.537 138.29 327.972 145.226 327.537 146.665C327.108 148.105 328.576 151.404 329.025 152.799C329.469 154.195 335.062 176.099 336.159 177.195C336.323 178.693 336.154 180.146 335.642 181.562C335.642 181.562 341.158 184.295 344.659 183.523Z" fill="#FB865D"/>
<path d="M305.967 169.757C306.387 169.105 306.986 168.782 307.759 168.777C307.759 168.777 306.513 167.294 302.63 167.874C302.63 167.874 303.518 166.386 306.692 166.386C306.006 165.681 305.247 165.063 304.412 164.536C303.576 164.01 302.692 163.585 301.76 163.271C300.828 162.952 299.867 162.749 298.886 162.662C297.906 162.575 296.926 162.604 295.95 162.749C295.887 162.285 295.969 161.851 296.191 161.445C296.418 161.039 296.742 160.74 297.167 160.551C297.167 160.551 291.559 159.556 285.58 167.975C285.087 167.511 284.778 166.946 284.658 166.28C284.532 165.613 284.619 164.976 284.914 164.367C284.914 164.367 280.876 168.82 281.306 173.186C281.735 177.553 282.286 178.074 282.286 178.074C282.286 178.074 279.243 177.316 279.079 175.727C279.079 175.727 277.983 180.18 280.948 182.957C280.267 184.363 280.132 185.822 280.547 187.324C280.547 187.324 281.011 185.556 281.793 185.29C281.793 185.29 284.764 193.95 291.067 195.303C297.375 196.65 300.775 194.931 300.775 194.931C300.775 194.931 305.697 194.115 306.561 195.704L307.759 192.907L309.319 192.269C309.319 192.269 307.759 179.721 307.759 179.634C307.759 179.543 305.967 169.757 305.967 169.757Z" fill="#0E133F"/>
<path d="M305.966 169.757C307.29 170.366 308.681 170.704 310.135 170.767C311.859 170.554 313.588 170.453 315.327 170.458C315.684 170.709 315.327 172.592 315.935 172.964C316.544 173.336 320.017 177.422 319.717 179.441C319.422 181.46 315.076 183.286 315.626 184.996C316.172 186.701 320.074 188.961 320.074 188.961C320.529 189.714 320.736 190.531 320.698 191.41C320.567 192.685 313.486 198.181 313.486 198.181L313.371 198.732L307.092 194.424C307.352 193.177 307.381 191.927 307.183 190.666C307.183 190.666 308.193 191.188 308.338 191.931C308.338 191.931 308.681 187.473 305.995 184.933C305.995 184.933 302.566 185.604 300.682 184.131C298.799 182.663 299.557 179.47 301.17 179.32L303.281 179.098C303.281 179.098 299.407 178.325 297.939 176.601C300.407 176.572 302.846 176.282 305.251 175.741C305.251 175.741 300.803 174.732 299.465 174.259C299.465 174.244 304.17 172.935 305.966 169.757Z" fill="#FB865D"/>
<path d="M367.301 197.631C367.301 197.631 368.403 166.251 369.127 158.19C369.856 150.124 370.344 133.031 378.164 129.973C385.983 126.916 419.102 105.423 419.102 105.423L426.965 113.368C426.965 113.368 407.201 132.852 401.888 134.919C396.575 136.981 390.91 141.942 390.181 144.748C389.456 147.554 390.789 178.639 390.731 180.774C390.673 182.914 391.34 211.309 390.731 214.057C390.123 216.806 387.558 225.103 378.714 226.34L371.933 226.634C371.933 226.634 365.002 205.518 367.301 197.631Z" fill="#0E133F"/>
<path d="M379.145 224.379L383.593 224.615C383.593 224.615 391.34 222.92 394.147 219.375C396.948 215.825 395.629 205.088 388.892 195.834L379.082 154.253C383.178 155.026 387.303 155.296 391.461 155.069C397.586 154.625 419.282 148.848 419.282 148.848L416.726 137.218C416.726 137.218 376.368 139.416 374.527 139.416C372.687 139.416 359.516 138.227 356.043 141.884C352.571 145.535 353.759 157.373 354.942 162.126C356.13 166.879 365.331 196.756 365.331 196.756L379.145 224.379Z" fill="#0E133F"/>
<path d="M300.194 216.564C300.194 216.564 292.684 229.696 292.684 232.904C292.959 236.236 293.756 239.438 295.074 242.51C295.978 244.988 309.912 269.717 310.714 270.635C310.849 272.871 311.168 275.078 311.66 277.262C312.467 279.754 313.486 282.154 314.718 284.463C315.394 284.463 316.065 284.386 316.722 284.226C316.722 284.226 316.722 285.221 317.239 285.352C318.074 285.371 318.9 285.303 319.717 285.163C319.717 285.163 319.717 285.651 320.726 285.651C321.736 285.651 322.982 285.1 323.102 284.584C323.764 284.888 324.426 284.888 325.092 284.584C325.846 284.033 325.329 279.43 325.329 279.43C325.329 279.43 325.938 279.831 326.025 278.909C326.116 277.986 326.025 275.851 325.358 275.272C324.691 274.692 319.494 268.959 318.103 268.307C318.103 268.307 313.37 259.396 311.351 254.508C309.332 249.625 306.782 239.182 302.45 236.198C302.45 236.198 310.013 227.958 311.115 226.369L300.194 216.564Z" fill="#FB865D"/>
<path d="M316.572 193.873C315.191 194.086 313.877 194.511 312.636 195.158C311.395 195.8 310.289 196.626 309.318 197.631C306.053 201.016 297.33 218.216 297.33 218.216C299.417 219.182 301.305 220.442 302.996 222.002C305.411 224.519 307.975 226.876 310.685 229.069C311.173 229.16 318.978 216.371 318.978 216.371C318.978 216.371 324.914 224.615 340.403 227.436C348.851 228.972 357.366 229.701 365.954 229.634C370.465 229.156 374.86 228.165 379.144 226.663C379.144 226.663 379.144 225.847 377.792 225.596C376.444 225.345 369.779 216.076 368.89 209.348C368.311 204.649 368.001 199.93 367.973 195.196C367.973 195.196 367.557 194.438 366.871 194.824C365.963 195.404 364.973 195.757 363.906 195.892C363.118 195.892 352.034 190.251 343.654 188.869C340.466 188.265 337.249 187.966 334.008 187.98C329.183 188.082 319.973 188.526 319.973 188.526C319.973 188.526 319.509 188.439 319.509 189.183C319.509 189.922 319.113 193.221 316.572 193.873Z" fill="#FFBB19"/>
<path d="M324.808 189.434C324.808 189.434 332.541 181.103 334.096 180.18C335.98 181.069 337.96 181.605 340.032 181.789C343.147 182.025 346.663 181.875 347.079 182.069C347.494 182.262 344.113 191.912 344.113 191.912C344.113 191.912 326.827 190.502 324.808 189.434Z" fill="#FFBB19"/>
<path d="M420.021 137.088H430.139C430.139 137.088 432.709 138.691 432.66 140.99C432.482 142.695 431.883 144.231 430.869 145.612L422.498 146.293L420.021 137.088Z" fill="#FB865D"/>
<path d="M441.253 118.227C439.533 117.526 437.171 117.604 436.548 119.372C434.278 125.844 428.907 135.706 428.835 136.315C428.762 136.923 428.951 137.088 428.951 137.088H429.545C429.545 137.088 431.786 138.971 431.786 140.71C431.578 142.415 431.139 144.057 430.467 145.641H429.724C429.724 145.641 428.999 145.641 429.859 146.236C430.719 146.83 436.742 146.781 438.64 146.694C440.2 143.202 440.465 134.576 440.615 132.823C440.765 131.07 441.137 121.598 441.253 118.227Z" fill="#0E133F"/>
<path d="M443.166 119.917C442.799 119.048 442.161 118.488 441.253 118.227C441.137 121.598 440.765 131.19 440.616 132.886C440.466 134.576 440.2 143.28 438.64 146.752H439.147C439.843 146.622 442.113 146.414 442.205 142.951C442.292 139.493 443.644 121.893 443.166 119.917Z" fill="#DFE3FF"/>
<path d="M434.742 131.456C434.616 131.451 434.515 131.398 434.428 131.311C434.099 130.973 433.713 130.741 433.264 130.606C432.815 130.476 432.361 130.461 431.907 130.567C431.795 130.587 431.694 130.562 431.602 130.5C431.511 130.437 431.453 130.35 431.428 130.239C431.414 130.133 431.438 130.031 431.501 129.939C431.564 129.848 431.651 129.79 431.757 129.766C432.361 129.635 432.955 129.659 433.544 129.843C434.133 130.026 434.64 130.34 435.065 130.789C435.143 130.867 435.181 130.963 435.181 131.07C435.181 131.181 435.143 131.277 435.065 131.355C434.978 131.446 434.867 131.485 434.742 131.456Z" fill="#DFE3FF"/>
<path d="M435.746 129.128C435.62 129.123 435.519 129.075 435.437 128.978C435.109 128.64 434.717 128.408 434.263 128.278C433.814 128.143 433.36 128.133 432.901 128.235C432.79 128.254 432.689 128.23 432.597 128.167C432.505 128.099 432.447 128.012 432.428 127.901C432.413 127.79 432.438 127.689 432.5 127.597C432.568 127.505 432.655 127.452 432.766 127.433C433.365 127.302 433.959 127.331 434.548 127.51C435.133 127.694 435.64 128.008 436.06 128.457C436.137 128.534 436.176 128.631 436.176 128.742C436.176 128.848 436.137 128.945 436.06 129.022C435.973 129.114 435.872 129.147 435.746 129.128Z" fill="#DFE3FF"/>
<path d="M421.386 103.51L429.428 97.376C429.428 97.376 432.394 97.0959 433.789 98.9506C434.678 100.409 435.137 101.993 435.171 103.703L428.921 109.33L421.386 103.51Z" fill="#FB865D"/>
<path d="M426.845 75.6221C425.053 76.1099 423.227 77.5927 423.802 79.3894C425.898 85.9243 427.588 97.0041 427.897 97.5403C428.211 98.0715 428.463 98.0909 428.463 98.0909L428.936 97.7334C428.936 97.7334 431.906 97.8639 432.916 99.2162C433.78 100.699 434.423 102.274 434.843 103.94L434.292 104.442C434.292 104.442 433.746 104.906 434.77 104.814C435.794 104.727 440.571 101.09 442.025 99.8683C441.151 96.1444 436.089 89.1169 435.2 87.6196C434.307 86.1175 428.805 78.38 426.845 75.6221Z" fill="#0E133F"/>
<path d="M429.386 75.8105C428.57 75.3469 427.725 75.2841 426.846 75.6222C428.792 78.3801 434.264 86.2383 435.201 87.6632C436.134 89.088 441.137 96.188 442.026 99.9167L442.413 99.5593C442.871 99.0376 444.504 97.5404 442.528 94.6859C440.558 91.8362 430.985 77.076 429.386 75.8105Z" fill="#DFE3FF"/>
<path d="M429.651 90.1119C429.55 90.1892 429.434 90.2182 429.308 90.1892C428.844 90.1167 428.395 90.165 427.956 90.3341C427.516 90.4983 427.144 90.7639 426.845 91.1214C426.768 91.2035 426.671 91.2421 426.555 91.2421C426.444 91.2421 426.347 91.2035 426.265 91.1214C426.183 91.0441 426.145 90.9475 426.145 90.8364C426.145 90.7205 426.183 90.6239 426.265 90.5466C426.666 90.0781 427.154 89.74 427.729 89.5275C428.304 89.315 428.898 89.257 429.501 89.3584C429.608 89.3874 429.695 89.4454 429.752 89.542C429.81 89.6337 429.835 89.7352 429.815 89.8463C429.786 89.9525 429.733 90.0395 429.651 90.1119Z" fill="#DFE3FF"/>
<path d="M429.043 87.6343C428.946 87.7115 428.835 87.7405 428.714 87.7067C428.251 87.6439 427.801 87.6922 427.362 87.8613C426.927 88.0255 426.555 88.2863 426.251 88.6437C426.179 88.7258 426.082 88.7693 425.971 88.7741C425.86 88.7789 425.763 88.7403 425.681 88.6679C425.599 88.5906 425.556 88.4988 425.551 88.3829C425.546 88.2718 425.585 88.1752 425.657 88.0931C426.058 87.6294 426.546 87.2913 427.12 87.0788C427.7 86.8711 428.289 86.818 428.893 86.9194C429.004 86.9436 429.086 87.0015 429.149 87.0933C429.207 87.1851 429.226 87.2865 429.207 87.3976C429.178 87.4942 429.125 87.5715 429.043 87.6343Z" fill="#DFE3FF"/>
<path d="M420.364 102.438C419.765 102.8 419.224 103.235 418.746 103.747C418.191 104.263 417.814 104.887 417.616 105.616C417.543 105.872 417.543 106.123 417.616 106.374C417.693 106.591 417.814 106.78 417.973 106.939C419.673 108.649 421.494 110.219 423.436 111.648C424.416 112.706 425.585 113.469 426.952 113.933C427.203 113.986 427.454 113.986 427.706 113.933C428.131 113.774 428.474 113.508 428.73 113.131L430.41 111.156C430.715 110.856 430.908 110.494 431 110.074C431.024 109.726 430.951 109.398 430.777 109.093C430.463 108.504 430.077 107.963 429.623 107.475C428.232 106.137 426.744 104.915 425.17 103.805C424.653 103.38 424.107 102.988 423.537 102.631L423.122 102.365C423.011 102.288 422.909 102.206 422.813 102.114C422.47 101.935 422.108 101.882 421.726 101.95C421.33 102.018 420.953 102.148 420.601 102.336L420.364 102.438Z" fill="#2D6FD1"/>
<path d="M421.968 138.406C421.968 138.406 421.074 135.837 419.62 135.929C418.166 136.016 417.601 136.416 417.056 136.387C416.858 136.387 416.669 136.426 416.486 136.503C416.307 136.576 416.143 136.682 416.003 136.822C415.867 136.962 415.761 137.122 415.684 137.305C415.607 137.489 415.573 137.677 415.573 137.875C415.66 138.942 416.949 149.472 418.538 149.902C420.127 150.331 420.572 149.414 421.402 149.351C422.233 149.293 424.368 148.742 424.518 147.216C423.822 144.236 422.972 141.299 421.968 138.406Z" fill="#2D6FD1"/>
<path d="M307.748 171.255C308.149 171.337 308.473 171.482 308.719 171.699C308.97 171.916 309.071 172.143 309.028 172.37C308.98 172.602 308.801 172.766 308.487 172.873C308.173 172.984 307.821 172.993 307.42 172.916C307.024 172.839 306.7 172.689 306.449 172.472C306.203 172.254 306.101 172.032 306.145 171.8C306.188 171.573 306.367 171.404 306.681 171.298C306.995 171.192 307.352 171.177 307.748 171.255Z" fill="#0E133F"/>
<path d="M129.815 97.3906L126.371 92.2806C125.709 91.3001 124.874 90.4935 123.869 89.8656C122.864 89.2377 121.773 88.8416 120.599 88.6726L111.997 87.47L109.799 84.1566C109.703 84.0166 109.582 83.9006 109.442 83.804C109.297 83.7123 109.143 83.6447 108.974 83.6108C108.804 83.5819 108.64 83.5819 108.471 83.6108C108.302 83.6447 108.148 83.7074 108.003 83.804L105.037 85.8229C104.897 85.9195 104.776 86.0355 104.685 86.1755C104.588 86.3204 104.525 86.475 104.491 86.6392C104.458 86.8083 104.458 86.9725 104.491 87.1415C104.525 87.3057 104.588 87.4603 104.68 87.6052L106.834 90.8847L104.487 99.4675C104.163 100.641 104.095 101.829 104.293 103.032C104.491 104.235 104.931 105.336 105.617 106.345L108.998 111.364L129.815 97.3906Z" fill="#0E133F"/>
<path d="M110.881 115.107C113.952 115.005 118.613 113.175 123.24 110.059C127.872 106.939 131.311 103.288 132.557 100.482L134.204 99.366L132.722 97.1249C131.046 94.6278 124.086 96.3956 117.189 101.042C110.287 105.693 106.06 111.441 107.736 113.976L109.219 116.222L110.881 115.107Z" fill="#2D6FD1"/>
<path d="M134.22 99.3418C134.418 99.6365 134.538 99.9842 134.572 100.38C134.606 100.781 134.558 101.221 134.432 101.708C134.302 102.191 134.089 102.713 133.799 103.264C133.51 103.819 133.143 104.394 132.708 104.998C132.268 105.597 131.761 106.21 131.191 106.838C130.617 107.461 129.989 108.084 129.308 108.712C128.627 109.335 127.902 109.948 127.139 110.547C126.371 111.151 125.579 111.726 124.758 112.281C123.937 112.837 123.101 113.353 122.261 113.841C121.416 114.324 120.575 114.769 119.744 115.165C118.909 115.566 118.093 115.913 117.3 116.208C116.508 116.503 115.75 116.744 115.03 116.928C114.306 117.106 113.635 117.232 113.016 117.29C112.393 117.353 111.833 117.353 111.335 117.295C110.838 117.232 110.408 117.111 110.056 116.928C109.698 116.744 109.423 116.507 109.22 116.208C109.022 115.913 108.906 115.566 108.867 115.169C108.834 114.769 108.882 114.329 109.012 113.841C109.143 113.358 109.35 112.837 109.64 112.286C109.93 111.731 110.297 111.156 110.737 110.552C111.176 109.953 111.678 109.34 112.253 108.712C112.823 108.089 113.451 107.466 114.132 106.838C114.813 106.215 115.537 105.601 116.305 105.003C117.069 104.399 117.866 103.824 118.687 103.269C119.508 102.713 120.338 102.196 121.184 101.708C122.024 101.226 122.864 100.781 123.7 100.385C124.536 99.9842 125.347 99.6365 126.139 99.3418C126.931 99.0472 127.69 98.8057 128.414 98.6222C129.134 98.4435 129.805 98.3179 130.428 98.2599C131.046 98.1971 131.607 98.1971 132.104 98.2551C132.606 98.3179 133.031 98.4386 133.389 98.6222C133.741 98.8057 134.022 99.0424 134.22 99.3418Z" fill="#6BA3F5"/>
<path d="M118.903 109.731C118.98 109.842 119.004 109.977 118.98 110.142C118.956 110.301 118.888 110.48 118.773 110.668C118.657 110.861 118.502 111.054 118.309 111.243C118.116 111.431 117.903 111.61 117.666 111.769C117.425 111.929 117.183 112.064 116.937 112.17C116.686 112.276 116.454 112.349 116.232 112.383C116.01 112.421 115.821 112.421 115.662 112.378C115.503 112.339 115.387 112.267 115.314 112.156C115.237 112.045 115.213 111.909 115.237 111.75C115.261 111.586 115.329 111.407 115.445 111.219C115.561 111.025 115.715 110.837 115.908 110.644C116.102 110.456 116.314 110.282 116.551 110.117C116.792 109.958 117.034 109.823 117.285 109.717C117.531 109.61 117.763 109.538 117.985 109.504C118.207 109.465 118.396 109.47 118.555 109.509C118.715 109.548 118.83 109.625 118.903 109.731Z" fill="#0E133F"/>
<path d="M128.178 103.471C128.25 103.582 128.274 103.718 128.255 103.882C128.231 104.046 128.158 104.22 128.042 104.413C127.926 104.602 127.772 104.795 127.584 104.983C127.39 105.176 127.173 105.35 126.936 105.51C126.7 105.669 126.453 105.804 126.207 105.911C125.961 106.017 125.724 106.089 125.502 106.128C125.284 106.162 125.091 106.162 124.932 106.123C124.773 106.08 124.657 106.007 124.584 105.896C124.512 105.79 124.488 105.655 124.507 105.49C124.531 105.326 124.603 105.152 124.719 104.959C124.835 104.771 124.99 104.577 125.178 104.389C125.371 104.196 125.589 104.022 125.825 103.863C126.062 103.698 126.308 103.568 126.555 103.462C126.801 103.351 127.038 103.283 127.26 103.244C127.477 103.211 127.666 103.211 127.825 103.249C127.984 103.288 128.105 103.365 128.178 103.471Z" fill="#0E133F"/>
<path d="M306.855 120.961L310.893 125.607C311.67 126.501 312.598 127.201 313.67 127.698C314.747 128.201 315.877 128.457 317.065 128.471L325.745 128.621L328.367 131.591C328.483 131.717 328.619 131.818 328.773 131.896C328.923 131.968 329.087 132.011 329.256 132.026C329.43 132.036 329.594 132.011 329.758 131.958C329.918 131.905 330.063 131.823 330.193 131.712L332.893 129.35C333.023 129.239 333.125 129.104 333.202 128.954C333.279 128.8 333.323 128.64 333.333 128.466C333.342 128.297 333.323 128.133 333.265 127.969C333.212 127.809 333.125 127.665 333.014 127.539L330.386 124.569L331.661 115.759C331.84 114.556 331.758 113.368 331.41 112.204C331.067 111.035 330.493 109.992 329.691 109.079L325.73 104.505L306.855 120.961Z" fill="#0E133F"/>
<path d="M323.46 101.057C320.417 101.535 316.041 103.911 311.81 107.591C307.584 111.277 304.642 115.3 303.754 118.241L302.271 119.565L304.034 121.598C306.009 123.854 312.684 121.255 318.963 115.773C325.237 110.296 328.739 104.041 326.768 101.771L324.943 99.7959L323.46 101.057Z" fill="#2D6FD1"/>
<path d="M324.968 99.7476C325.199 100.013 325.359 100.347 325.446 100.738C325.528 101.124 325.538 101.568 325.465 102.066C325.397 102.568 325.253 103.109 325.03 103.694C324.813 104.278 324.523 104.896 324.161 105.548C323.799 106.196 323.369 106.867 322.881 107.558C322.388 108.248 321.843 108.944 321.244 109.649C320.645 110.354 320.002 111.05 319.317 111.74C318.631 112.431 317.911 113.102 317.167 113.754C316.419 114.406 315.66 115.025 314.883 115.609C314.105 116.193 313.323 116.739 312.545 117.237C311.767 117.734 310.999 118.179 310.251 118.57C309.502 118.961 308.778 119.294 308.082 119.56C307.391 119.83 306.739 120.033 306.131 120.173C305.522 120.313 304.967 120.381 304.465 120.381C303.962 120.381 303.523 120.313 303.146 120.178C302.774 120.038 302.465 119.835 302.233 119.565C301.996 119.299 301.837 118.966 301.755 118.575C301.673 118.188 301.663 117.744 301.731 117.246C301.803 116.744 301.948 116.203 302.166 115.619C302.388 115.034 302.677 114.416 303.04 113.764C303.402 113.117 303.827 112.445 304.32 111.755C304.807 111.064 305.353 110.369 305.952 109.663C306.556 108.958 307.198 108.263 307.884 107.572C308.57 106.881 309.285 106.21 310.033 105.558C310.777 104.906 311.54 104.288 312.318 103.703C313.096 103.119 313.873 102.573 314.656 102.076C315.433 101.578 316.196 101.134 316.95 100.743C317.699 100.351 318.423 100.018 319.114 99.7524C319.809 99.4819 320.461 99.2743 321.07 99.139C321.678 98.999 322.234 98.9313 322.736 98.9313C323.238 98.9313 323.678 98.999 324.05 99.1342C324.427 99.2743 324.731 99.4771 324.968 99.7476Z" fill="#6BA3F5"/>
<path d="M319.172 104.713L313.429 98.3132C313.26 98.1006 313.052 97.9316 312.811 97.806C312.569 97.6804 312.318 97.608 312.048 97.5838C311.777 97.5645 311.511 97.5935 311.255 97.6804C311 97.7674 310.768 97.9026 310.565 98.0813C310.362 98.26 310.203 98.4726 310.087 98.7189C309.971 98.9652 309.908 99.226 309.898 99.4965C309.889 99.767 309.932 100.028 310.034 100.284C310.13 100.535 310.27 100.762 310.463 100.955L316.187 107.326C316.559 107.698 317.496 107.461 318.298 106.746C319.094 106.031 319.495 105.114 319.143 104.713H319.172Z" fill="#0E133F"/>
<path d="M310.995 112.064L305.252 105.664C305.083 105.452 304.875 105.283 304.638 105.157C304.397 105.031 304.141 104.954 303.87 104.935C303.6 104.911 303.334 104.945 303.078 105.031C302.822 105.118 302.59 105.254 302.388 105.432C302.185 105.611 302.025 105.824 301.914 106.07C301.798 106.316 301.736 106.577 301.726 106.848C301.716 107.118 301.76 107.379 301.856 107.635C301.953 107.886 302.098 108.113 302.286 108.306L308.029 114.648C308.415 115.02 309.333 114.778 310.149 114.068C310.966 113.353 311.352 112.45 310.995 112.035V112.064Z" fill="#0E133F"/>
<path d="M311.724 174.51C311.724 174.732 311.68 174.949 311.593 175.157C311.506 175.365 311.386 175.548 311.226 175.708C311.067 175.867 310.883 175.988 310.676 176.075C310.473 176.162 310.255 176.2 310.028 176.2C309.806 176.2 309.589 176.162 309.381 176.075C309.178 175.988 308.995 175.867 308.835 175.708C308.676 175.548 308.555 175.365 308.468 175.157C308.381 174.949 308.338 174.732 308.338 174.51C308.338 174.283 308.381 174.07 308.468 173.863C308.555 173.655 308.676 173.471 308.835 173.312C308.995 173.153 309.178 173.032 309.381 172.945C309.589 172.858 309.806 172.815 310.028 172.815C310.255 172.815 310.473 172.858 310.676 172.945C310.883 173.032 311.067 173.153 311.226 173.312C311.386 173.471 311.506 173.655 311.593 173.863C311.68 174.07 311.724 174.283 311.724 174.51Z" fill="#FF6E48"/>
<path d="M344.529 189.391C344.476 189.405 344.418 189.405 344.365 189.391C342.264 188.647 340.095 188.232 337.868 188.14C334.516 187.961 331.174 188.043 327.837 188.396C327.721 188.41 327.619 188.386 327.528 188.314C327.441 188.246 327.387 188.154 327.378 188.038C327.368 187.927 327.397 187.831 327.465 187.744C327.532 187.657 327.624 187.609 327.73 187.594C331.121 187.227 334.521 187.145 337.926 187.338C340.259 187.406 342.52 187.845 344.708 188.662C344.809 188.71 344.877 188.787 344.915 188.889C344.949 188.995 344.944 189.096 344.901 189.198C344.814 189.338 344.693 189.401 344.529 189.391Z" fill="#F2700D"/>
<path d="M309.84 197.544C309.729 197.544 309.633 197.5 309.555 197.423C309.478 197.341 309.439 197.249 309.439 197.133C309.439 197.022 309.478 196.926 309.555 196.844C311.251 195.153 313.274 194.086 315.627 193.636C317.457 193.289 319.22 193.496 320.92 194.259C321.017 194.317 321.08 194.4 321.109 194.506C321.138 194.612 321.123 194.714 321.065 194.81C321.012 194.907 320.93 194.969 320.824 194.998C320.717 195.027 320.616 195.013 320.519 194.96C318.974 194.313 317.375 194.139 315.728 194.438C313.569 194.863 311.71 195.853 310.149 197.409C310.067 197.5 309.961 197.544 309.84 197.544Z" fill="#F2700D"/>
<path d="M319.186 216.405C319.09 216.4 318.998 216.371 318.921 216.313C318.838 216.231 318.8 216.139 318.8 216.023C318.8 215.912 318.838 215.815 318.921 215.733C320.761 213.497 322.437 211.14 323.949 208.667C324.644 207.102 324.977 205.465 324.943 203.75C324.939 203.639 324.972 203.542 325.05 203.456C325.122 203.373 325.219 203.325 325.33 203.32C325.436 203.32 325.533 203.354 325.61 203.431C325.692 203.504 325.736 203.596 325.745 203.707C325.803 205.561 325.441 207.334 324.658 209.024C323.132 211.56 321.418 213.97 319.529 216.255C319.442 216.371 319.326 216.419 319.186 216.405Z" fill="#F2700D"/>
<path d="M322.387 212.183C322.175 212.174 322.049 212.063 322.006 211.855C321.962 211.647 322.035 211.493 322.228 211.396C324.706 210.3 326.44 206.629 326.454 206.586C326.503 206.489 326.58 206.421 326.686 206.383C326.787 206.349 326.889 206.349 326.99 206.392C327.092 206.436 327.164 206.513 327.208 206.619C327.246 206.721 327.241 206.827 327.198 206.928C327.121 207.093 325.329 210.923 322.566 212.154L322.387 212.183Z" fill="#F2700D"/>
<path d="M369.678 219.104C369.567 219.104 369.476 219.066 369.393 218.989C361.975 211.43 363.462 197.66 363.549 197.08C363.559 196.969 363.607 196.877 363.694 196.805C363.781 196.737 363.882 196.708 363.994 196.727C364.105 196.737 364.196 196.785 364.264 196.872C364.337 196.959 364.365 197.061 364.351 197.172C364.351 197.322 362.868 211.13 369.973 218.409C370.05 218.491 370.084 218.588 370.084 218.699C370.084 218.81 370.05 218.906 369.973 218.989C369.891 219.071 369.794 219.109 369.678 219.104Z" fill="#F2700D"/>
<path d="M376.145 226.62C362.138 225.789 359.337 203.987 359.322 203.779C359.303 203.668 359.327 203.567 359.395 203.48C359.462 203.388 359.549 203.335 359.66 203.32C359.776 203.306 359.873 203.335 359.965 203.402C360.052 203.475 360.105 203.562 360.124 203.678C360.124 203.885 362.868 225.016 376.188 225.804C376.304 225.813 376.396 225.857 376.469 225.939C376.546 226.026 376.58 226.122 376.575 226.233C376.57 226.345 376.522 226.441 376.44 226.514C376.357 226.591 376.256 226.625 376.145 226.62Z" fill="#F2700D"/>
<path d="M367.973 194.337C367.867 194.341 367.77 194.303 367.693 194.23C367.616 194.158 367.572 194.071 367.572 193.965C366.727 185.203 371.026 142.386 371.204 140.502C371.219 140.386 371.267 140.295 371.359 140.222C371.451 140.155 371.552 140.126 371.668 140.145C371.779 140.155 371.871 140.203 371.943 140.29C372.011 140.377 372.04 140.478 372.021 140.589C372.021 141.038 367.572 185.14 368.374 193.829C368.384 193.945 368.355 194.042 368.282 194.134C368.21 194.221 368.113 194.269 368.002 194.274L367.973 194.337Z" fill="#6BA3F5"/>
<path d="M389.959 154.741C389.857 154.746 389.766 154.707 389.688 154.635C389.611 154.567 389.568 154.475 389.558 154.374C389.558 154.089 388.983 147.424 389.795 144.632C390.611 141.84 394.769 138.822 394.943 138.691C395.04 138.628 395.141 138.609 395.248 138.628C395.359 138.648 395.446 138.706 395.508 138.793C395.576 138.884 395.6 138.986 395.581 139.097C395.566 139.203 395.513 139.295 395.421 139.358C395.421 139.358 391.311 142.328 390.567 144.854C389.828 147.375 390.36 154.239 390.36 154.311C390.374 154.427 390.345 154.524 390.268 154.611C390.195 154.698 390.104 154.741 389.988 154.741H389.959Z" fill="#6BA3F5"/>
<path d="M370.522 151.775C367.301 151.775 364.277 148.892 364.156 148.805C364.074 148.723 364.036 148.626 364.036 148.515C364.036 148.399 364.074 148.303 364.156 148.225C364.239 148.143 364.335 148.105 364.446 148.105C364.557 148.105 364.654 148.143 364.736 148.225C364.736 148.225 367.702 151.003 370.537 151.003C370.648 151.003 370.744 151.041 370.827 151.119C370.904 151.196 370.947 151.292 370.952 151.404C370.942 151.51 370.894 151.602 370.812 151.674C370.73 151.746 370.633 151.775 370.522 151.775Z" fill="#6BA3F5"/>
<path d="M387.988 217.515C387.785 217.525 387.655 217.438 387.587 217.25C387.52 217.057 387.573 216.907 387.732 216.791C391.669 213.729 390.524 200.065 390.509 199.935C390.5 199.823 390.534 199.722 390.606 199.635C390.678 199.548 390.77 199.5 390.881 199.49C390.992 199.476 391.089 199.505 391.176 199.577C391.263 199.654 391.306 199.746 391.311 199.857C391.311 200.437 392.514 214.101 388.239 217.429C388.167 217.486 388.08 217.515 387.988 217.515Z" fill="#6BA3F5"/>
<path d="M303.219 183.6C302.499 183.571 301.886 183.295 301.383 182.784C301.152 182.571 301.007 182.315 300.954 182.011C300.896 181.706 300.939 181.412 301.084 181.137C301.229 180.861 301.441 180.658 301.722 180.528C302.002 180.398 302.296 180.369 302.596 180.436C302.712 180.455 302.799 180.509 302.866 180.6C302.934 180.697 302.958 180.798 302.939 180.91C302.924 181.021 302.871 181.112 302.779 181.18C302.692 181.243 302.591 181.272 302.48 181.252C302.32 181.214 302.171 181.238 302.031 181.32C301.886 181.402 301.794 181.523 301.75 181.682C301.726 181.9 301.799 182.078 301.973 182.218C302.349 182.605 302.803 182.793 303.34 182.784C303.446 182.764 303.547 182.788 303.639 182.851C303.726 182.914 303.779 183.001 303.798 183.107C303.813 183.218 303.789 183.32 303.721 183.411C303.658 183.503 303.567 183.561 303.46 183.585L303.219 183.6Z" fill="#EB5F3A"/>
<path d="M306.16 185.01C306.049 184.996 305.957 184.948 305.889 184.861C305.817 184.774 305.788 184.672 305.802 184.561C305.836 184.324 305.976 184.199 306.218 184.194C306.218 184.194 306.59 184.194 306.942 183.479C306.995 183.378 307.073 183.31 307.179 183.272C307.29 183.238 307.391 183.247 307.493 183.301C307.59 183.358 307.652 183.436 307.686 183.542C307.715 183.648 307.705 183.75 307.657 183.851C307.034 184.919 306.353 185.01 306.16 185.01Z" fill="#EB5F3A"/>
<path d="M310.565 184.073H310.444C310.318 184.097 310.202 184.068 310.101 183.986C310.004 183.904 309.951 183.798 309.951 183.662C309.951 183.532 310.004 183.426 310.101 183.344C310.202 183.262 310.318 183.233 310.444 183.257H310.536C311.936 183.262 313.322 183.146 314.704 182.914C314.815 182.894 314.916 182.914 315.013 182.977C315.105 183.039 315.163 183.131 315.177 183.242C315.196 183.353 315.177 183.455 315.11 183.547C315.047 183.638 314.965 183.696 314.854 183.716C313.434 183.952 312.004 184.073 310.565 184.073Z" fill="#EB5F3A"/>
<path d="M316.408 174.244C316.602 174.244 316.727 174.331 316.795 174.51C316.829 174.616 316.814 174.722 316.766 174.824C316.713 174.921 316.635 174.993 316.529 175.032C315.655 175.326 315.698 175.978 315.713 176.056C315.722 176.167 315.694 176.263 315.626 176.355C315.558 176.442 315.467 176.495 315.355 176.514C315.109 176.529 314.955 176.418 314.897 176.171C314.868 175.727 314.979 175.326 315.24 174.964C315.5 174.602 315.843 174.365 316.278 174.259L316.408 174.244Z" fill="#EB5F3A"/>
<path d="M316.887 176.664C316.8 176.659 316.723 176.635 316.651 176.587C316.559 176.524 316.506 176.437 316.486 176.326C316.467 176.215 316.491 176.113 316.559 176.026L316.781 175.712C316.945 175.548 317.124 175.534 317.317 175.669C317.506 175.804 317.554 175.978 317.448 176.186L317.211 176.5C317.134 176.611 317.023 176.664 316.887 176.664Z" fill="#F8653E"/>
<path d="M323.03 284.42C322.914 284.41 322.818 284.367 322.74 284.284C322.663 284.197 322.629 284.101 322.629 283.99C322.494 282.971 322.248 281.981 321.886 281.019C321.842 280.913 321.842 280.807 321.89 280.705C321.939 280.604 322.016 280.532 322.122 280.498C322.228 280.459 322.335 280.464 322.436 280.512C322.538 280.565 322.605 280.643 322.644 280.749C323.045 281.802 323.31 282.884 323.446 284.004C323.446 284.115 323.402 284.217 323.32 284.299C323.243 284.376 323.141 284.42 323.03 284.42Z" fill="#EB5F3A"/>
<path d="M325.092 279.281C324.865 279.285 324.73 279.174 324.691 278.952C324.455 277.735 323.957 276.629 323.204 275.644C323.059 275.46 323.064 275.281 323.223 275.103C323.378 274.929 323.556 274.905 323.754 275.035C324.614 276.151 325.16 277.402 325.401 278.788C325.43 278.899 325.411 279.005 325.353 279.102C325.29 279.199 325.203 279.257 325.092 279.281Z" fill="#EB5F3A"/>
<path d="M319.737 285.178C319.534 285.173 319.408 285.076 319.365 284.878C319.254 284.081 319.186 283.28 319.157 282.473C319.152 282.362 319.186 282.265 319.263 282.178C319.336 282.096 319.428 282.048 319.544 282.043C319.655 282.043 319.751 282.077 319.833 282.154C319.915 282.227 319.959 282.319 319.973 282.43C319.973 283.41 320.104 284.506 320.133 284.671C320.162 284.782 320.147 284.883 320.089 284.98C320.031 285.076 319.949 285.134 319.838 285.159L319.737 285.178Z" fill="#EB5F3A"/>
<path d="M316.665 284.091C316.438 284.086 316.302 283.975 316.264 283.748L316.042 282.174C316.022 282.063 316.046 281.966 316.114 281.874C316.182 281.782 316.269 281.729 316.38 281.715C316.491 281.7 316.592 281.724 316.684 281.787C316.771 281.855 316.824 281.947 316.843 282.058L317.066 283.632C317.08 283.743 317.056 283.845 316.988 283.932C316.921 284.023 316.834 284.077 316.723 284.091H316.665Z" fill="#EB5F3A"/>
<path d="M429.502 110.19C429.439 110.209 429.371 110.209 429.309 110.19C428.367 109.659 427.536 108.982 426.816 108.171C426.324 107.64 425.792 107.142 425.227 106.688C424.749 106.365 424.256 106.07 423.745 105.795C422.508 105.263 421.518 104.433 420.779 103.302C420.716 103.08 420.784 102.921 420.987 102.815C421.194 102.708 421.363 102.747 421.503 102.93C422.16 103.901 423.03 104.626 424.102 105.099C424.614 105.379 425.111 105.688 425.585 106.031C426.184 106.485 426.744 106.978 427.261 107.519C427.922 108.263 428.686 108.881 429.545 109.374C429.647 109.427 429.714 109.509 429.748 109.615C429.782 109.721 429.772 109.823 429.724 109.924C429.695 110.05 429.623 110.142 429.502 110.19Z" fill="#A9AFFC"/>
<path d="M427.826 112.614C427.71 112.614 427.613 112.576 427.531 112.494C425.223 109.943 422.527 107.91 419.441 106.389C419.34 106.34 419.272 106.263 419.238 106.157C419.2 106.051 419.204 105.949 419.258 105.848C419.306 105.746 419.383 105.679 419.489 105.64C419.596 105.606 419.697 105.611 419.799 105.664C422.967 107.224 425.744 109.316 428.12 111.929C428.203 112.011 428.241 112.107 428.241 112.218C428.241 112.329 428.203 112.426 428.12 112.508C428.038 112.585 427.942 112.624 427.826 112.614Z" fill="#A9AFFC"/>
<path d="M421.073 148.356C420.904 148.361 420.779 148.288 420.702 148.134C418.987 144.902 417.707 141.507 416.862 137.947C416.842 137.836 416.862 137.735 416.92 137.643C416.982 137.546 417.065 137.488 417.171 137.46C417.282 137.435 417.383 137.455 417.48 137.513C417.577 137.575 417.635 137.658 417.664 137.769C418.494 141.256 419.75 144.584 421.431 147.747C421.484 147.853 421.494 147.96 421.46 148.066C421.426 148.177 421.354 148.259 421.252 148.312L421.073 148.356Z" fill="#A9AFFC"/>
<path d="M422.869 147.095C422.676 147.09 422.546 146.999 422.483 146.815C421.58 144.178 420.353 141.705 418.803 139.387C418.696 139.169 418.745 138.995 418.943 138.86C419.145 138.725 419.324 138.749 419.488 138.928C421.073 141.323 422.328 143.883 423.256 146.607C423.29 146.714 423.285 146.815 423.232 146.917C423.183 147.018 423.106 147.086 423.005 147.124L422.869 147.095Z" fill="#A9AFFC"/>
<path d="M334.574 138.406H334.497C334.386 138.387 334.299 138.334 334.236 138.237C334.168 138.145 334.149 138.044 334.173 137.933C334.274 137.382 335.226 132.615 336.559 131.533C336.559 131.533 338.042 130.654 338.699 130.195C338.771 130.113 338.868 130.075 338.979 130.075C339.09 130.075 339.182 130.113 339.259 130.195C339.336 130.277 339.38 130.374 339.38 130.485C339.38 130.596 339.336 130.693 339.259 130.775C338.621 131.277 337.139 132.113 337.081 132.156C336.187 132.866 335.298 136.609 335.033 138.097C334.97 138.339 334.82 138.44 334.574 138.406Z" fill="#EB5F3A"/>
</svg>
