<svg width="247" height="266" viewBox="0 0 247 266" fill="none" xmlns="http://www.w3.org/2000/svg">
<path opacity="0.2" fill-rule="evenodd" clip-rule="evenodd" d="M55.6306 129.41C60.5986 137.713 70.7024 141.119 79.522 137.906C83.6579 145.083 81.8871 154.046 75.7189 159.164C70.1459 150.094 58.3885 147 49.063 152.193L40.8396 137.949L55.6306 129.41ZM48.5153 152.509L40.2918 138.265L40.2917 138.265L39.9755 137.718L39.9756 137.718L30.3303 121.012C25.5273 112.693 28.3776 102.055 36.6966 97.252C44.9826 92.4681 55.5686 95.2768 60.3986 103.519C61.1372 102.939 61.9258 102.405 62.7627 101.922C63.411 101.547 64.0716 101.213 64.7416 100.92C60.0737 92.626 62.9415 82.0996 71.2042 77.329C79.5233 72.526 90.1608 75.3764 94.9637 83.6954L104.609 100.402L104.609 100.401L94.9638 83.6953C90.1608 75.3763 93.0111 64.7388 101.33 59.9358C109.616 55.1519 120.202 57.9606 125.032 66.2033C125.771 65.6232 126.559 65.0884 127.396 64.6052C128.045 64.2309 128.705 63.8972 129.375 63.6032C124.707 55.3097 127.575 44.7832 135.838 40.0127C144.15 35.2135 154.778 38.0555 159.586 46.3593C154.799 38.0433 157.651 27.4188 165.964 22.6196C174.25 17.8357 184.836 20.6444 189.666 28.887C190.404 28.307 191.193 27.7722 192.03 27.289C192.678 26.9147 193.339 26.581 194.009 26.287C189.341 17.9935 192.209 7.46703 200.472 2.6965C208.791 -2.10649 219.428 0.743823 224.231 9.06284L243.838 43.0229C248.641 51.3419 245.791 61.9794 237.472 66.7824C229.209 71.5529 218.659 68.7732 213.81 60.584C213.221 61.0172 212.601 61.4225 211.953 61.7968C211.116 62.28 210.259 62.6956 209.387 63.0452C214.11 71.3494 211.25 81.9216 202.964 86.7055C194.653 91.5037 184.028 88.6638 179.219 80.3638C184.002 88.6791 181.149 99.3004 172.838 104.099C164.575 108.869 154.025 106.089 149.177 97.9002C148.587 98.3334 147.968 98.7387 147.32 99.113C146.483 99.5962 145.625 100.012 144.753 100.361C149.107 108.015 147.018 117.595 140.177 122.794C140.223 122.875 140.268 122.956 140.312 123.038C148.237 119.71 157.58 122.691 162.032 130.289C162.771 129.709 163.559 129.174 164.396 128.691C165.045 128.317 165.705 127.983 166.375 127.689C161.707 119.396 164.575 108.869 172.838 104.099C181.157 99.2956 191.795 102.146 196.597 110.465L206.243 127.171L206.559 127.719L216.204 144.425C221.007 152.744 218.157 163.381 209.838 168.184C201.575 172.955 191.025 170.175 186.177 161.986C185.587 162.419 184.968 162.825 184.32 163.199C183.483 163.682 182.625 164.098 181.753 164.447C186.477 172.752 183.616 183.324 175.33 188.108C167.011 192.911 156.374 190.06 151.571 181.741L141.925 165.035L141.925 165.035L151.571 181.741C156.374 190.06 153.523 200.698 145.204 205.501C136.941 210.271 126.391 207.492 121.543 199.302C120.953 199.736 120.334 200.141 119.686 200.515C118.849 200.998 117.991 201.414 117.12 201.764C121.843 210.068 118.983 220.64 110.697 225.424C102.378 230.227 91.7401 227.376 86.9371 219.057C91.7401 227.376 88.8898 238.014 80.5707 242.817C72.3079 247.588 61.7579 244.808 56.9094 236.619C56.3199 237.052 55.7005 237.457 55.0522 237.831C54.2152 238.315 53.3578 238.73 52.4862 239.08C57.2095 247.384 54.3489 257.956 46.0629 262.74C37.7439 267.543 27.1064 264.693 22.3034 256.374L12.6581 239.668L12.3419 239.12L2.69658 222.414C-2.10641 214.095 0.743899 203.457 9.06292 198.654C17.3489 193.87 27.9349 196.679 32.7649 204.922C33.5035 204.342 34.2922 203.807 35.1291 203.324C35.7775 202.949 36.4381 202.616 37.1081 202.322C32.8062 194.678 34.9045 185.139 41.7275 179.956C41.6489 179.826 41.5715 179.696 41.4955 179.564C36.0467 170.126 39.1969 158.084 48.5153 152.509ZM139.663 123.171C139.686 123.212 139.709 123.253 139.732 123.294C139.258 123.513 138.791 123.756 138.33 124.022C138.791 123.755 139.236 123.471 139.663 123.171ZM108.204 141.415C116.523 136.612 119.374 125.974 114.571 117.655C119.374 125.974 130.011 128.825 138.33 124.022C130.011 128.825 127.161 139.462 131.964 147.781L132.753 149.148L131.964 147.781C127.161 139.462 116.523 136.612 108.204 141.415ZM106.218 142.401C106.892 142.118 107.555 141.79 108.204 141.415C107.556 141.789 106.942 142.198 106.361 142.639C106.313 142.56 106.265 142.481 106.218 142.401ZM138.646 124.569C130.63 129.198 127.883 139.448 132.512 147.465L133.291 148.814C141.604 143.463 144.516 132.655 140.028 123.854C139.562 124.069 139.1 124.307 138.646 124.569ZM140.609 123.599C145.225 132.692 142.203 143.848 133.607 149.363L142.157 164.171L156.948 155.631C152.241 147.177 154.343 136.724 161.535 130.693C157.274 123.326 148.263 120.416 140.609 123.599ZM139.854 122.245C146.423 117.205 148.401 107.956 144.156 100.59C135.336 103.803 125.232 100.397 120.264 92.0933L105.473 100.633L113.706 114.894C122.966 110.111 134.412 113.293 139.854 122.245ZM114.023 115.442C123.001 110.823 134.09 113.926 139.343 122.622C138.918 122.923 138.475 123.208 138.014 123.474C129.997 128.102 119.747 125.356 115.118 117.339L114.023 115.442ZM108.52 141.963C107.88 142.333 107.273 142.739 106.7 143.176C112.206 151.594 123.339 154.395 132.205 149.465L131.416 148.097C126.788 140.081 116.537 137.334 108.52 141.963ZM132.522 150.012C123.38 155.102 111.902 152.23 106.203 143.572C100.043 148.665 98.2528 157.589 102.329 164.759C111.285 161.166 121.737 164.535 126.818 173.027L141.061 164.804L132.522 150.012ZM105.624 142.637C105.702 142.771 105.781 142.903 105.861 143.034C99.4377 148.296 97.5466 157.552 101.742 165.005C101.072 165.299 100.411 165.633 99.7627 166.007C98.9258 166.491 98.1372 167.025 97.3986 167.605C93.0566 160.195 84.0629 157.177 76.2703 160.118C76.197 159.983 76.1221 159.848 76.0454 159.714C82.4843 154.435 84.3647 145.141 80.1199 137.678C80.9914 137.328 81.8488 136.912 82.6858 136.429C83.3341 136.055 83.9534 135.65 84.5429 135.217C88.8989 142.574 97.8569 145.565 105.624 142.637ZM75.5432 160.111C75.589 160.192 75.6341 160.273 75.6785 160.354C75.0064 160.636 74.3445 160.964 73.6966 161.338C74.3458 160.963 74.9617 160.553 75.5432 160.111ZM49.9371 154.972C54.7401 163.291 65.3776 166.141 73.6966 161.338C65.3776 166.141 62.5273 176.778 67.3302 185.097C62.5272 176.778 51.8898 173.928 43.5707 178.731C43.1103 178.997 42.6665 179.281 42.2399 179.581C42.1734 179.471 42.1078 179.36 42.0432 179.248C36.7691 170.113 39.8157 158.457 48.8315 153.057L49.9371 154.972ZM67.878 184.781L68.6674 186.148C77.3705 180.935 80.5112 169.893 75.9741 160.916C75.3088 161.193 74.6537 161.516 74.0129 161.886C65.9963 166.514 63.2497 176.765 67.878 184.781ZM76.5651 160.683C81.2141 169.948 77.9621 181.324 68.9836 186.696L77.5233 201.487L92.3143 192.948C87.6071 184.493 89.7096 174.04 96.9016 168.009C92.7496 160.83 84.0869 157.884 76.5651 160.683ZM75.2207 159.561C74.6424 160.005 74.0286 160.416 73.3804 160.79C65.3639 165.419 55.1132 162.672 50.4849 154.655L49.3793 152.74C58.43 147.707 69.8429 150.731 75.2207 159.561ZM112.917 116.057L114.023 117.972C118.651 125.988 115.905 136.239 107.888 140.867C107.24 141.241 106.577 141.567 105.904 141.846C100.945 132.774 104.033 121.378 112.917 116.057ZM112.601 115.509C103.442 120.989 100.242 132.718 105.31 142.079C97.8248 144.851 89.2167 141.938 85.05 134.831C92.64 128.871 94.948 118.135 90.1341 109.489L104.378 101.266L112.601 115.509ZM82.3695 135.882C81.5321 136.365 80.6736 136.779 79.8006 137.124L60.7185 104.073C61.4541 103.489 62.2415 102.953 63.0789 102.469C63.7273 102.095 64.3883 101.763 65.0588 101.471L84.2238 134.666C83.6362 135.101 83.0179 135.507 82.3695 135.882ZM37.0129 97.7998C45.0254 93.1737 55.27 95.9154 59.9016 103.923C52.7096 109.955 50.6071 120.408 55.3143 128.862L40.5233 137.401L30.878 120.695C26.2497 112.679 28.9963 102.428 37.0129 97.7998ZM60.2229 104.479C53.3308 110.329 51.3295 120.395 55.8622 128.546L69.5537 120.641L60.2229 104.479ZM79.2007 137.35C70.6891 140.394 60.9707 137.094 56.1784 129.093L69.8699 121.188L79.2007 137.35ZM75.0309 117.478L65.648 101.227C74.2985 97.8038 84.3648 101.068 89.2701 109.257L75.0309 117.478ZM75.3472 118.026L89.5863 109.805C94.2258 118.148 92.0197 128.498 84.7301 134.278L75.3472 118.026ZM65.3288 100.673C74.2854 97.08 84.7373 100.449 89.8179 108.941L104.061 100.718L94.416 84.0116C89.7877 75.9951 79.537 73.2484 71.5205 77.8768C63.537 82.486 60.7801 92.6713 65.3288 100.673ZM67.8782 187.312L76.4278 202.12L62.1843 210.343C57.1037 201.851 46.6519 198.482 37.6953 202.075C33.5118 194.716 35.5078 185.51 42.0657 180.493C47.6324 189.037 58.8046 191.998 67.8782 187.312ZM67.5616 186.763C58.7704 191.287 47.954 188.405 42.5761 180.118C42.9959 179.821 43.433 179.541 43.887 179.279C51.9035 174.65 62.1542 177.397 66.7825 185.414L67.5616 186.763ZM27.997 230.812C32.965 239.115 43.0687 242.521 51.8883 239.309C56.5072 247.323 53.7593 257.566 45.7467 262.192C37.7302 266.821 27.4795 264.074 22.8512 256.057L13.2059 239.351L27.997 230.812ZM54.736 237.284C53.8985 237.767 53.0399 238.181 52.1669 238.526L42.784 222.274L42.4677 221.727L33.0848 205.475C33.8205 204.892 34.6079 204.355 35.4454 203.871C36.0937 203.497 36.7547 203.165 37.4253 202.873L46.8497 219.197L47.1659 219.744L56.5903 236.068C56.0027 236.503 55.3843 236.909 54.736 237.284ZM9.37916 199.202C17.3917 194.576 27.6363 197.318 32.2679 205.325C25.0761 211.357 22.9736 221.81 27.6808 230.264L12.8896 238.804L3.24433 222.097C-1.38401 214.081 1.36265 203.83 9.37916 199.202ZM32.5892 205.882C25.6973 211.731 23.696 221.797 28.2286 229.948L41.92 222.043L32.5892 205.882ZM51.567 238.752C43.0555 241.796 33.3371 238.496 28.5449 230.495L42.2362 222.591L51.567 238.752ZM47.3974 218.881L38.0145 202.629C46.6649 199.206 56.7313 202.47 61.6365 210.66L47.3974 218.881ZM47.7137 219.428L61.9528 211.207C66.5923 219.55 64.3861 229.9 57.0966 235.68L47.7137 219.428ZM62.5006 210.891C67.3144 219.537 65.0065 230.273 57.4165 236.233C62.0718 244.173 72.271 246.878 80.2545 242.269C88.271 237.641 91.0177 227.39 86.3893 219.374L76.744 202.668L62.5006 210.891ZM92.6306 193.495L77.8396 202.035L87.4849 218.741C92.1132 226.758 102.364 229.504 110.38 224.876C118.393 220.25 121.141 210.007 116.522 201.992C107.702 205.205 97.5986 201.799 92.6306 193.495ZM116.801 201.21C117.674 200.864 118.532 200.451 119.37 199.967C120.018 199.593 120.636 199.187 121.224 198.752L102.059 165.557C101.388 165.848 100.727 166.181 100.079 166.555C99.2415 167.039 98.4541 167.575 97.7185 168.159L116.801 201.21ZM106.554 184.727L92.8622 192.631C88.3295 184.481 90.3308 174.414 97.2229 168.565L106.554 184.727ZM106.87 185.274L93.1784 193.179C97.9707 201.18 107.689 204.48 116.201 201.436L106.87 185.274ZM112.031 181.564L126.27 173.343C121.365 165.154 111.298 161.89 102.648 165.313L112.031 181.564ZM126.586 173.891L112.347 182.112L121.73 198.364C129.02 192.584 131.226 182.234 126.586 173.891ZM127.134 173.575L141.378 165.351L151.023 182.058C155.651 190.074 152.905 200.325 144.888 204.953C136.905 209.562 126.705 206.857 122.05 198.917C129.64 192.957 131.948 182.221 127.134 173.575ZM147.003 98.5652C146.166 99.0487 145.307 99.4623 144.434 99.8078L135.051 83.556L134.735 83.0083L125.352 66.7566C126.088 66.1733 126.875 65.6364 127.713 65.1529C128.361 64.7786 129.022 64.4462 129.693 64.1549L148.858 97.3496C148.27 97.7847 147.652 98.1909 147.003 98.5652ZM101.646 60.4836C109.659 55.8575 119.904 58.5992 124.535 66.6067C117.343 72.6385 115.241 83.0914 119.948 91.5455L105.157 100.085L95.5116 83.3791C90.8832 75.3626 93.6299 65.1119 101.646 60.4836ZM120.496 91.2292L134.187 83.3246L124.856 67.1632C117.965 73.0124 115.963 83.0787 120.496 91.2292ZM120.812 91.777L134.503 83.8723L143.834 100.034C135.323 103.078 125.604 99.7776 120.812 91.777ZM153.904 71.9412L139.665 80.1621L130.282 63.9104C138.932 60.4875 148.999 63.7519 153.904 71.9412ZM139.981 80.7099L154.22 72.4889C158.86 80.8316 156.653 91.1815 149.364 96.9616L139.981 80.7099ZM169.011 63.9492L154.768 72.1726C159.582 80.8185 157.274 91.5548 149.684 97.5149C154.339 105.455 164.538 108.16 172.522 103.551C180.538 98.9225 183.285 88.6718 178.657 80.6553L169.011 63.9492ZM129.963 63.3567C138.919 59.7637 149.371 63.133 154.452 71.6249L168.695 63.4015L159.05 46.6953C154.421 38.6788 144.171 35.9321 136.154 40.5605C128.171 45.1697 125.414 55.355 129.963 63.3567ZM157.264 156.179L142.473 164.719L152.118 181.425C156.747 189.442 166.997 192.188 175.014 187.56C183.027 182.934 185.774 172.691 181.156 164.676C172.336 167.888 162.232 164.483 157.264 156.179ZM181.434 163.894C182.307 163.548 183.166 163.135 184.003 162.651C184.652 162.277 185.27 161.871 185.858 161.435L166.693 128.241C166.022 128.532 165.361 128.865 164.713 129.239C163.875 129.722 163.088 130.259 162.352 130.842L171.735 147.094L172.051 147.642L181.434 163.894ZM171.187 147.41L157.496 155.315C152.963 147.165 154.965 137.098 161.856 131.249L171.187 147.41ZM171.503 147.958L157.812 155.863C162.604 163.864 172.323 167.164 180.834 164.12L171.503 147.958ZM176.665 144.248L190.904 136.027C185.999 127.838 175.932 124.573 167.282 127.996L176.665 144.248ZM191.22 136.575L176.981 144.796L186.364 161.047C193.653 155.267 195.86 144.918 191.22 136.575ZM191.768 136.259L206.011 128.035L215.657 144.741C220.285 152.758 217.538 163.008 209.522 167.637C201.538 172.246 191.339 169.541 186.684 161.601C194.274 155.641 196.582 144.904 191.768 136.259ZM191.452 135.711C186.371 127.219 175.919 123.85 166.963 127.443C162.414 119.441 165.171 109.256 173.154 104.646C181.171 100.018 191.421 102.765 196.05 110.781L205.695 127.487L191.452 135.711ZM170.107 63.3167L184.898 54.7771C189.866 63.0807 199.97 66.4864 208.789 63.274C213.408 71.2887 210.66 81.5317 202.648 86.1577C194.631 90.7861 184.38 88.0394 179.752 80.0229L170.107 63.3167ZM211.637 61.249C210.799 61.7325 209.941 62.1461 209.068 62.4915L189.986 29.4404C190.721 28.857 191.509 28.3202 192.346 27.8367C192.995 27.4624 193.656 27.13 194.326 26.8387L203.751 43.1622L204.067 43.7099L213.491 60.0334C212.904 60.4684 212.285 60.8747 211.637 61.249ZM166.28 23.1673C174.293 18.5413 184.537 21.283 189.169 29.2904C181.977 35.3222 179.874 45.7751 184.582 54.2293L169.791 62.769L160.145 46.0628C155.517 38.0463 158.264 27.7957 166.28 23.1673ZM185.129 53.9131L198.821 46.0083L189.49 29.8469C182.598 35.6961 180.597 45.7625 185.129 53.9131ZM185.446 54.4608L199.137 46.5561L208.468 62.7174C199.956 65.7615 190.238 62.4615 185.446 54.4608ZM218.537 34.625L204.298 42.8459L194.915 26.5942C203.566 23.1714 213.632 26.4357 218.537 34.625ZM204.615 43.3937L218.854 35.1727C223.493 43.5154 221.287 53.8653 213.997 59.6454L204.615 43.3937ZM233.645 26.633L219.401 34.8565C224.215 43.5023 221.907 54.2385 214.317 60.1987C218.973 68.1388 229.172 70.8439 237.155 66.2346C245.172 61.6063 247.919 51.3556 243.29 43.3391L233.645 26.633ZM194.596 26.0405C203.553 22.4475 214.005 25.8168 219.085 34.3087L233.329 26.0852L223.683 9.37908C219.055 1.36257 208.804 -1.3841 200.788 3.24425C192.804 7.8535 190.047 18.0388 194.596 26.0405Z" fill="#C3CDD9" fill-opacity="0.5"/>
</svg>
